<!DOCTYPE svg PUBLIC "-//W3C//DTD SVG 1.1//EN" "http://www.w3.org/Graphics/SVG/1.1/DTD/svg11.dtd">
<!-- Uploaded to: SVG Repo, www.svgrepo.com, Transformed by: SVG Repo Mixer Tools -->
<svg fill="#000000" height="233px" width="233px" version="1.1" id="Capa_1" xmlns="http://www.w3.org/2000/svg" xmlns:xlink="http://www.w3.org/1999/xlink" viewBox="-219.43 -219.43 823.83 823.83" xml:space="preserve" stroke="#000000" stroke-width="0.00384971">
<g id="SVGRepo_bgCarrier" stroke-width="0">
<path transform="translate(-219.43, -219.43), scale(25.7446875)" d="M16,28.889315138970105C18.714556558939286,28.92500282129865,21.472819187979745,28.136839172458824,23.5357536101114,26.372075026082708C25.513502893194026,24.680183617484875,25.894134850566957,21.940148355400805,26.919606644098756,19.547995273783393C28.078936571240867,16.843586751465235,30.274606436031082,14.397874099305344,29.92109948705272,11.476760583438763C29.540460724348353,8.331450321188369,27.647356171770717,5.351916047868821,24.99240032047215,3.6230227772629515C22.39428781524724,1.9311455943096834,19.09925968284064,2.3264056038798944,16,2.411413899489812C12.992256254275052,2.493912042795159,9.63962078617104,2.144007501813582,7.3589986487442065,4.10668196536454C5.120661514469216,6.0329664919262305,5.571865246342678,9.50958564708337,4.537742870044438,12.275686895191372C3.433595321444578,15.229093554092097,0.21719200529405802,17.814258014509782,1.1030358544946015,20.840317064950106C1.9869242123521935,23.859696120624157,5.838937892036088,24.680277590801783,8.606842807006132,26.175807895638165C10.974347538124395,27.454997456334905,13.309246720447673,28.853940393157963,16,28.889315138970105" fill="#7ed0ec" strokewidth="0"/>
</g>
<g id="SVGRepo_tracerCarrier" stroke-linecap="round" stroke-linejoin="round"/>
<g id="SVGRepo_iconCarrier"> <g> <g id="Sign_Out"> <path d="M180.455,360.91H24.061V24.061h156.394c6.641,0,12.03-5.39,12.03-12.03s-5.39-12.03-12.03-12.03H12.03 C5.39,0.001,0,5.39,0,12.031V372.94c0,6.641,5.39,12.03,12.03,12.03h168.424c6.641,0,12.03-5.39,12.03-12.03 C192.485,366.299,187.095,360.91,180.455,360.91z"/> <path d="M381.481,184.088l-83.009-84.2c-4.704-4.752-12.319-4.74-17.011,0c-4.704,4.74-4.704,12.439,0,17.179l62.558,63.46H96.279 c-6.641,0-12.03,5.438-12.03,12.151c0,6.713,5.39,12.151,12.03,12.151h247.74l-62.558,63.46c-4.704,4.752-4.704,12.439,0,17.179 c4.704,4.752,12.319,4.752,17.011,0l82.997-84.2C386.113,196.588,386.161,188.756,381.481,184.088z"/> </g> <g> </g> <g> </g> <g> </g> <g> </g> <g> </g> <g> </g> </g> </g>
</svg>