<?xml version="1.0" encoding="UTF-8"?>
<svg id="Graphic_Elements" data-name="Graphic Elements" xmlns="http://www.w3.org/2000/svg" viewBox="0 0 834.54 844.95">
  <defs>
    <style>
      .cls-1 {
        fill: #7cc7b9;
      }

      .cls-1, .cls-2 {
        stroke-width: 0px;
      }

      .cls-2 {
        fill: #528ac8;
      }
    </style>
  </defs>
  <path class="cls-2" d="M567.24,184.89c-4.66-26.53-8.32-53.07-11.73-79.61l-1.24-9.95-.61-4.98-.15-1.24c-.05-.41-.09-.87-.17-1.14l-.4-1.87c-1.05-4.94-2.94-9.5-5.5-13.49-2.59-3.98-5.77-7.44-9.44-10.1-3.67-2.65-7.66-4.62-11.77-5.72-4.11-1.11-8.25-1.48-12.29-1.09l-18.57,1.7-19.91,1.74c-6.64.57-13.27,1.13-19.91,1.64-26.55,2.14-53.09,4-79.64,5.64-13.27.85-26.55,1.58-39.82,2.32l-4.98.28-2.49.13-.62.03-.3.02-.12.03-.46.11c-.31.07-.61.12-.92.16-.31.04-.62.05-.9.19-.57.22-1.16.31-1.73.5-2.25.74-4.23,2.03-5.99,3.48-1.76,1.47-3.23,3.26-4.3,5.19-1.06,1.94-1.77,3.95-2.1,5.99-.21,1.01-.19,2.06-.22,3.09.04.27.06.53.07.79v.39s0,.2,0,.2v.1s0,.27,0,.27l.19,4.98.64,19.91c.87,26.55,1.47,53.11,1.97,79.66.15,6.64.21,13.28.31,19.92v.31s0,.53,0,.53l-.03,1.08-.07,2.16-.2,4.31c-.04,1.44-.24,2.87-.43,4.3-.19,1.43-.4,2.87-.61,4.3-.36,2.87-1.15,5.68-1.83,8.5-.38,1.4-.67,2.83-1.17,4.19-.46,1.37-.94,2.75-1.43,4.11-7.94,21.87-24.06,40.34-44.53,51.3-2.59,1.31-5.19,2.61-7.86,3.76-2.71,1.06-5.44,2.06-8.18,3.01-2.79.8-5.61,1.54-8.43,2.22-2.83.62-5.71,1.01-8.58,1.44-1.43.24-2.87.33-4.31.42l-4.32.23c-3.42.17-4.38.09-6.18.11l-9.96.02-39.84-.2c-13.28-.16-26.56-.25-39.84-.47l-36.93-.65c-1.97,0-3.87.3-5.74.98-1.87.67-3.71,1.68-5.33,3.05-1.63,1.36-3.01,3.05-4.09,4.91-1.05,1.88-1.77,3.95-2.1,6.26l-.09.43-.05.22s-.02.06-.03.13v.31s-.1,2.49-.1,2.49l-.2,4.98-.41,9.96-.83,19.92c-.63,13.28-1.21,26.56-1.95,39.84-.67,13.28-1.48,26.56-2.26,39.84-.86,13.28-1.68,26.56-2.65,39.85-.46,6.64-.94,13.28-1.46,19.92l-1.26,16.88c-.1,3.81.52,7.7,1.89,11.48,1.37,3.78,3.52,7.4,6.3,10.63,2.77,3.24,6.23,6.01,10.15,8.15l1.48.83c.51.23,1.04.42,1.56.65l1.58.68c.52.27,1.09.34,1.63.53l1.66.51c.28.08.56.19.84.26l.86.16,1.74.35.88.19c.16.03.25.07.48.09l.62.07c13.28,1.37,26.57,2.85,39.85,4.41,26.57,3.17,53.14,6.61,79.72,11.05-26.53,4.69-53.07,8.37-79.61,11.79-13.27,1.68-26.54,3.28-39.81,4.78l-.62.07c-.19.03-.51.03-.76.05l-1.61.07-3.24.12-1.63.04c-.54,0-1.08-.05-1.62-.08l-3.26-.22c-1.09-.1-2.19-.11-3.27-.31l-3.25-.54c-1.08-.19-2.18-.37-3.26-.6l-3.21-.86c-8.56-2.34-16.76-6.37-24.06-11.76-7.31-5.4-13.66-12.25-18.67-20.12-5.02-7.87-8.5-16.86-10.31-26.2l-.37-1.75c-.12-.59-.17-1.18-.25-1.76l-.42-3.55-.19-1.78-.15-1.61-.21-2.49-.85-9.95c-.58-6.64-1.12-13.27-1.64-19.91-1.09-13.27-2.04-26.55-3.02-39.82-.9-13.27-1.84-26.55-2.63-39.82-.86-13.27-1.57-26.55-2.32-39.82l-1.02-19.91-.5-9.96-.24-4.98-.11-2.49v-.31s-.01-.5-.01-.5v-1.03s.03-2.06.03-2.06c.09-10.95,2.2-22.07,6.28-32.45,4.06-10.39,10.17-19.94,17.71-28.17,7.56-8.22,16.64-15.11,26.76-20.14,10.11-5.03,21.23-8.19,32.49-9.28l4.23-.3c1.35-.09,3.08-.18,3.65-.19l4.98-.16,9.96-.27,19.91-.52c13.28-.34,26.55-.55,39.83-.84l39.83-.57,9.96-.08c1.51-.02,3.88,0,3.77-.1.22-.03.43-.04.65-.04.22,0,.44.03.64-.06.4-.13.83-.11,1.24-.21.39-.16.78-.26,1.2-.32.37-.21.75-.36,1.15-.45.37-.19.71-.43,1.12-.55,1.48-.78,2.85-1.86,3.99-3.14,1.15-1.28,2.01-2.76,2.64-4.29.07-.19.16-.38.26-.57.13-.18.09-.41.16-.6.06-.41.35-.77.32-1.22.02-.21.06-.42.11-.63.05-.21.14-.41.1-.64,0-.22,0-.44.03-.66l.05-.33.03-.17.02-.09v-.31c.04-6.64.04-13.28.13-19.92.25-26.56.61-53.12,1.23-79.67l.46-19.92.14-4.98.09-1.93.12-2.09.3-4.18c.62-5.56,1.61-11.11,3.22-16.49,3.13-10.77,8.25-20.92,14.99-29.72,6.72-8.81,15-16.34,24.34-22.16,9.33-5.81,19.76-9.9,30.51-11.89,2.68-.49,5.4-.8,8.09-1.13,1.35-.19,2.7-.23,4.05-.28l4.05-.11,2.02-.03h.5s.32,0,.32,0l.62.03,2.49.1,4.98.23c13.28.61,26.56,1.22,39.84,1.95,26.56,1.4,53.13,3.01,79.69,4.9,6.64.45,13.28.94,19.92,1.45l19.92,1.55,9.96.81,4.98.41,2.85.26,3.47.38c9.2,1.14,18.17,3.92,26.18,8.23,8.01,4.3,15.13,9.98,20.88,16.7,5.77,6.7,10.19,14.4,13.03,22.53,2.86,8.12,4.13,16.67,3.82,24.98l-.13,3.11c-.01.56-.07.92-.11,1.35l-.14,1.25-.56,4.98-1.15,9.96c-3.16,26.57-6.57,53.14-10.99,79.72Z"/>
  <path class="cls-2" d="M447.69,378.2c-3.65,1.94-7.32,3.78-10.91,5.78-3.63,1.91-7.2,3.93-10.75,5.94-7.09,4.05-14.06,8.24-20.82,12.66-6.79,4.37-13.36,9.01-19.75,13.79-3.2,2.38-6.3,4.88-9.4,7.34-3.04,2.55-6.08,5.06-9,7.7-5.88,5.21-11.5,10.64-16.76,16.32-5.22,5.67-10.12,11.41-14.45,17.52l-1.65,2.26c-.54.76-1.03,1.55-1.55,2.33-1.01,1.57-2.07,3.08-3.06,4.65l-2.85,4.76c-.49.78-.93,1.59-1.36,2.41l-1.3,2.43-1.3,2.42c-.42.82-.79,1.66-1.19,2.48-.78,1.66-1.63,3.27-2.36,4.95l-2.16,5.04c-.71,1.68-1.3,3.42-1.96,5.12-2.49,6.87-4.71,13.82-6.34,21.02-1.66,7.18-3.11,14.41-4.06,21.84l-.39,2.77-.31,2.8-.62,5.61c-.34,3.89-.75,7.76-1.03,11.64-.24,3.88-.6,7.74-.74,11.62l-.3,5.8c-.1,1.93-.13,3.87-.2,5.8-.47,15.47-.24,30.93.58,46.66.35,7.84.85,15.79,1.38,23.77l1.72,24.22c.57,8.13,1.2,16.35,1.7,24.61l1.62,23.89.5,5.79.26,2.67.13,1.28.15,1.2c.39,3.17.87,5.78,1.43,7.77.56,2,1.15,3.36,1.76,4.34.18.22.3.48.46.69.18.19.29.43.48.62.09.09.18.19.26.29.08.1.13.2.27.33.24.24.44.51.67.76,1.87,1.98,4.29,3.58,6.88,4.59,2.6,1,5.3,1.43,7.74,1.22l23.77-.75,24.51-.66c32.68-.89,65.37-1.53,98.05-2.06l24.51-.33,12.26-.15,1.48-.02c.14-.03.27-.05.41-.07.27-.04.54-.06.81-.05.28.05.52-.1.78-.14.26-.06.51-.09.78-.11,2-.46,3.86-1.38,5.53-2.66,1.64-1.29,3.13-2.92,3.98-4.8.9-1.85,1.44-3.76,1.52-5.93.02-.13.04-.27.06-.4v-1.47s0-3.06,0-3.06v-6.13s-.04-12.26-.04-12.26l.15-49.03.42-49.03c.05-2.21-.01-3.43.2-7.58.09-1.75.2-3.5.32-5.24.13-1.74.46-3.49.71-5.23.28-1.74.55-3.48.89-5.2.41-1.71.85-3.42,1.3-5.12.83-3.43,2.08-6.73,3.33-10.02.32-.82.63-1.64.97-2.45l1.12-2.38c.76-1.59,1.54-3.16,2.33-4.73.38-.79.83-1.55,1.28-2.3l1.36-2.25c.92-1.49,1.83-2.99,2.82-4.43,1.03-1.41,2.08-2.81,3.15-4.19,1.07-1.38,2.12-2.78,3.32-4.05,2.36-2.57,4.66-5.19,7.31-7.46,10.27-9.4,22.64-16.49,35.97-20.56,3.36-.88,6.73-1.8,10.15-2.4,1.71-.27,3.43-.52,5.15-.75l2.58-.33c.86-.09,1.72-.11,2.58-.16,1.72-.09,3.44-.15,5.16-.2l1.29-.03h.64s.41,0,.41,0l1.53.03,6.13.14c16.35.34,32.69.81,49.04,1.26,16.35.46,32.69,1.02,49.04,1.57l12.26.46,6.13.23,3.06.11.77.03h.38s.15.01.15.01h.61c3.27.19,6.52-.23,9.69-1.45l.31-.09.28-.15.57-.29c.38-.19.78-.35,1.18-.52.35-.24.72-.47,1.09-.69.37-.23.8-.39,1.11-.69.65-.57,1.48-.97,2.08-1.63.33-.3.67-.58,1.02-.87.33-.3.59-.66.91-.98,2.43-2.62,4.43-5.77,5.47-9.36.1-.46.22-.91.35-1.36l.21-.68c.08-.23.07-.47.11-.71.06-.48.14-.95.24-1.43l.07-.36c.02-.15.06-.17.07-.48l.08-1.53.63-12.26,1.34-24.52c1.85-32.7,3.94-65.39,6.35-98.09,1.21-16.35,2.48-32.7,3.85-49.05l.26-3.07.06-.77c.02-.25.05-.54.05-.69l.06-1.1.16-2.23.04-.56-.03-.55-.05-1.12c-.03-.75-.05-1.5-.06-2.26l-.3-2.24c-.12-.74-.13-1.53-.33-2.26l-.53-2.23-.25-1.13c-.1-.37-.25-.73-.37-1.09l-.75-2.21c-.21-.77-.61-1.43-.92-2.16l-.96-2.17-1.19-2.06c-.42-.68-.74-1.44-1.25-2.06l-1.4-1.97c-.24-.33-.46-.68-.71-.99l-.8-.91c-4.19-5-9.6-9.2-15.86-12.11-.79-.35-1.6-.63-2.4-.95-.81-.3-1.61-.69-2.45-.92l-2.53-.7c-.85-.24-1.7-.53-2.58-.63l-2.64-.46-1.34-.23-1.53-.16-6.13-.67c-16.35-1.85-32.7-3.68-49.06-5.96,16.33-2.43,32.67-4.41,49-6.41l6.13-.72,1.53-.18,1.72-.1,3.49-.18c1.17-.1,2.33-.01,3.51.04l3.53.2c1.18.08,2.34.32,3.51.48,1.17.19,2.36.35,3.53.59,9.34,2.01,18.35,6.27,26.14,12.37l1.47,1.14c.48.39.92.83,1.38,1.24l2.74,2.55c.95.83,1.71,1.81,2.57,2.73l2.5,2.84,2.24,3.05c.72,1.04,1.53,2.03,2.14,3.15l1.93,3.3c.31.56.65,1.1.94,1.67l.81,1.74,1.6,3.52c.55,1.17.89,2.42,1.34,3.63.42,1.23.85,2.45,1.23,3.7l.9,3.79.43,1.91.21.96.13.97.5,3.89.23,1.96.16,1.61.29,3.06c1.52,16.34,2.94,32.67,4.3,49.01,2.71,32.67,5.1,65.35,7.26,98.03l1.57,24.51.75,12.25.09,1.53c.02.19.02.68.02,1.05v1.17c0,1.56-.01,3.12-.04,4.69-.03.78,0,1.57-.09,2.35l-.23,2.35c-.17,1.57-.34,3.13-.54,4.7-3.76,25.09-19.57,48.29-42.23,61.06-11.29,6.4-24.2,10.32-37.25,11.14l-2.45.17-1,.06-.77.04-3.06.14-6.13.28-12.26.57c-16.34.7-32.68,1.41-49.02,2.02-16.34.6-32.68,1.23-49.02,1.71l-6.13.2-1.53.05h-.35s-.12.04-.12.04l-.24.05c-.32.07-.64.11-.96.14-.16.02-.32,0-.48.04-.15.05-.3.1-.45.15-.3.09-.6.16-.91.21-.08.01-.15.02-.23.04l-.21.1c-.14.06-.28.12-.43.18-.29.11-.58.19-.87.25-2.23.95-4.25,2.38-5.89,4.16-.49.37-.74.96-1.15,1.39-.23.2-.34.5-.49.75-.15.26-.32.5-.5.73-.14.26-.22.55-.37.8-.07.13-.14.25-.22.38-.08.12-.17.24-.19.39-.08.28-.18.55-.3.81-.06.13-.12.26-.19.38-.04.14-.05.28-.09.42-.12.56-.4,1.06-.4,1.64-.04.28-.11.55-.2.82-.01.29,0,.58-.03.86,0,.29-.12.55-.09.85.03.3.05.59.04.88-.06-.07.01,2.79.05,4.67l.88,49.03.61,49.03.09,12.26.04,6.13.02,3.06v1.6s-.07,2.66-.07,2.66c-.32,14.17-3.88,28.47-10.4,41.18-6.46,12.76-15.93,23.83-27.26,32.43-11.33,8.59-24.65,14.75-38.68,17.52-1.76.3-3.52.59-5.28.85-1.76.24-3.53.56-5.29.62-1.77.12-3.54.21-5.31.28l-2.65.1h-1.59s-12.26-.03-12.26-.03l-24.52-.11c-32.69-.23-65.38-.56-98.07-1.15l-24.52-.43-25.26-.59c-6.95-.21-13.83-1.21-20.45-2.96-6.63-1.75-13-4.27-19.01-7.42-12.01-6.3-22.62-15.22-30.8-26.14-1.01-1.37-1.98-2.78-2.94-4.18-.96-1.4-1.89-3.01-2.8-4.52-.91-1.54-1.7-3.14-2.52-4.73-.79-1.59-1.48-3.22-2.19-4.83-2.72-6.5-4.43-13.03-5.49-19.03-1.06-6.02-1.51-11.55-1.73-16.52l-.08-1.86-.05-1.78c-.04-1.21-.06-2.32-.07-3.45l-.02-6.46.38-25.12.53-24.41c.31-16.38.8-33.08,1.77-50.06.5-8.47,1.21-17.03,2.03-25.58.48-4.29.88-8.56,1.48-12.85l.85-6.42c.29-2.14.64-4.27.96-6.41,1.26-8.54,2.87-17.03,4.62-25.45.87-4.21,1.87-8.39,2.8-12.58.5-2.12,1.07-4.3,1.61-6.44l.83-3.22.92-3.22c2.38-8.57,5.28-17.11,8.65-25.49,3.32-8.38,7.28-16.6,11.72-24.52,4.41-7.94,9.45-15.55,14.99-22.71l2.08-2.68c.68-.9,1.39-1.78,2.14-2.63l4.4-5.13c1.5-1.67,3.06-3.29,4.6-4.92.78-.81,1.53-1.64,2.33-2.42l2.42-2.32c1.63-1.53,3.18-3.13,4.87-4.57l5.01-4.37c1.66-1.45,3.45-2.76,5.16-4.14,1.72-1.37,3.45-2.73,5.22-3.97,6.96-5.19,14.23-9.84,21.61-14.17,7.39-4.32,14.93-8.27,22.62-11.79,7.68-3.55,15.44-6.79,23.32-9.61,15.75-5.68,31.76-10.16,47.95-13.36Z"/>
  <path class="cls-1" d="M235.88,481.29c-.95-2.67-1.87-5.36-2.71-8.08-.85-2.72-1.59-5.47-2.36-8.23-.37-1.38-.71-2.77-1.04-4.17-.34-1.39-.66-2.79-.95-4.2l-.89-4.23-.78-4.26c-1.99-11.4-2.85-23.15-2.56-35.13.27-5.98.66-12.04,1.65-18.09.4-3.04,1.03-6.07,1.65-9.11.28-1.53.72-3.02,1.09-4.54.4-1.51.75-3.04,1.2-4.55,3.54-12.06,8.85-23.99,16.01-35.02l2.82-4.05c.95-1.35,1.88-2.72,2.94-3.99,2.07-2.57,4.08-5.23,6.35-7.63l3.37-3.67c1.15-1.2,2.36-2.31,3.55-3.48,1.2-1.14,2.39-2.32,3.62-3.43l3.78-3.22c10.19-8.5,21.44-15.55,33.12-21.19,1.46-.71,2.92-1.46,4.39-2.12l4.43-1.91,4.46-1.87c1.48-.6,2.94-1.09,4.41-1.64,2.94-1.05,5.88-2.2,8.86-3.14l4.46-1.47c1.48-.5,3.04-.89,4.55-1.34l4.59-1.29,4.56-1.14c3.06-.79,6.06-1.43,9.09-2.1,6.04-1.3,12-2.32,17.91-3.3,23.56-3.74,45.9-5.52,66.08-8.51,2.49-.39,5-.77,7.42-1.2l7.01-1.39c1.17-.24,2.34-.39,3.5-.69l3.48-.83c2.31-.58,4.64-1.04,6.93-1.69,4.58-1.34,9.18-2.54,13.71-4.11l3.41-1.1,1.7-.56,1.69-.63,6.74-2.51c35.82-13.98,69.53-35.74,101.27-61.68l.49-.4c17.33-14.16,42.86-11.59,57.03,5.74,5.09,6.23,8.01,13.47,8.87,20.91l.31,2.63.25,2.29.43,4.43c.27,2.92.51,5.81.73,8.69.44,5.75.74,11.46.96,17.17.43,11.41.59,22.81.29,34.23-.26,11.42-.84,22.85-1.89,34.31-.5,5.73-1.11,11.46-1.82,17.2-.72,5.73-1.6,11.48-2.52,17.22-3.8,22.96-9.57,46-18.26,68.66-4.48,11.29-9.51,22.53-15.78,33.39-6.14,10.89-13.42,21.44-21.84,31.27-4.19,4.93-8.78,9.6-13.56,14.07-2.48,2.18-4.87,4.4-7.47,6.44-1.29,1.03-2.54,2.09-3.87,3.07l-4,2.92-1.01.73-1.1.74-2.2,1.48c-1.46.97-2.99,2.02-4.28,2.67l-8.06,4.42c-2.7,1.53-5.34,2.71-7.99,3.99-2.65,1.25-5.28,2.56-7.94,3.75-21.39,9.43-43.54,16.26-65.95,20.54-22.43,4.18-45.16,5.7-67.49,4.54-22.32-1.23-44.3-5.1-64.9-12.27,21.74-1.72,42.7-5,62.88-10.1,20.17-5.05,39.56-11.76,57.96-19.99,18.37-8.32,35.78-18.1,51.83-29.16,2.01-1.38,3.94-2.86,5.91-4.27,1.94-1.43,3.98-2.84,5.7-4.3l5.39-4.27c1-.73,1.55-1.36,2.21-2.01l.97-.96.49-.47.53-.56c2.88-2.93,5.59-6.04,8.18-9.26,2.52-3.31,4.93-6.72,7.19-10.29,8.95-14.36,15.61-31.04,20.38-48.87,4.82-17.85,7.85-36.79,9.72-56.11.45-4.84.86-9.69,1.14-14.59.32-4.89.6-9.79.76-14.71.19-4.92.27-9.86.33-14.81.07-4.95.08-9.9,0-14.87-.18-9.93-.47-19.88-1.08-29.78-.31-4.95-.68-9.89-1.06-14.78-.2-2.44-.42-4.87-.66-7.26l-.37-3.53-.36-3.04,66.39,26.24c-18.49,15.15-38.16,29.37-59.46,41.68-5.24,3.18-10.77,5.98-16.2,8.91-2.75,1.42-5.56,2.76-8.33,4.14l-4.18,2.05-4.26,1.93-8.57,3.75-8.74,3.46c-1.46.56-2.9,1.18-4.38,1.69l-4.45,1.57c-2.98,1.02-5.91,2.12-8.94,3.03l-9.07,2.7-2.27.67-2.3.59-4.6,1.16c-3.08.74-6.11,1.62-9.24,2.19l-9.33,1.85c-3.11.6-6.28,1-9.41,1.5l-4.71.71c-1.56.25-3.16.36-4.74.55l-9.48.92c-3.09.23-6.11.4-9.14.58-24.04,1.16-46.15.31-66.82.76-2.55.08-5.14.12-7.66.23-2.49.13-5.07.2-7.51.38-2.47.15-4.96.28-7.36.53l-3.64.32-3.56.43c-2.37.25-4.78.64-7.19,1-2.43.33-4.79.84-7.21,1.25-1.19.23-2.43.41-3.59.67l-3.43.79-3.45.76c-1.14.27-2.24.62-3.36.92-17.99,4.89-34.3,13.04-47.82,25.61l-2.46,2.44c-.81.83-1.69,1.61-2.43,2.5-1.53,1.75-3.16,3.46-4.59,5.35l-2.23,2.79-2.08,2.94-1.05,1.48c-.34.5-.65,1.02-.98,1.53l-1.98,3.09c-5.09,8.39-9.26,17.73-12.67,27.63-6.68,19.88-9.98,41.83-11.5,64.42Z"/>
</svg>