<?xml version="1.0" encoding="UTF-8"?>
<svg id="OBJECTS" xmlns="http://www.w3.org/2000/svg" xmlns:xlink="http://www.w3.org/1999/xlink" viewBox="0 0 430.44 390.65">
  <defs>
    <style>
      .cls-1 {
        fill: #70cacc;
      }

      .cls-1, .cls-2, .cls-3, .cls-4, .cls-5, .cls-6, .cls-7, .cls-8, .cls-9, .cls-10, .cls-11, .cls-12, .cls-13, .cls-14, .cls-15, .cls-16, .cls-17, .cls-18, .cls-19, .cls-20, .cls-21, .cls-22 {
        stroke-width: 0px;
      }

      .cls-23 {
        stroke-width: 3px;
      }

      .cls-23, .cls-24, .cls-25, .cls-26, .cls-27, .cls-28 {
        stroke-miterlimit: 10;
      }

      .cls-23, .cls-24, .cls-26, .cls-27, .cls-7, .cls-28 {
        fill: none;
      }

      .cls-23, .cls-27 {
        stroke: #100e0e;
      }

      .cls-24 {
        stroke: #000;
      }

      .cls-2 {
        fill: #00a3a0;
      }

      .cls-25 {
        stroke: #231f20;
      }

      .cls-25, .cls-11, .cls-20 {
        fill: #fff;
      }

      .cls-29 {
        clip-path: url(#clippath-2);
      }

      .cls-3 {
        fill: #226c78;
      }

      .cls-4 {
        fill: #0bba14;
      }

      .cls-26 {
        stroke: #80d1d3;
        stroke-width: 5px;
      }

      .cls-27 {
        stroke-linecap: round;
      }

      .cls-27, .cls-28 {
        stroke-width: .5px;
      }

      .cls-5, .cls-16 {
        fill: #3a94ab;
      }

      .cls-6 {
        fill: #00b0b3;
      }

      .cls-8 {
        fill: #68a19d;
      }

      .cls-30 {
        clip-path: url(#clippath-1);
      }

      .cls-9 {
        fill: #dfebea;
      }

      .cls-10 {
        fill: #80d1d3;
      }

      .cls-31 {
        opacity: .45;
      }

      .cls-28 {
        stroke: #fff;
      }

      .cls-12 {
        fill: #bfe4e6;
      }

      .cls-13 {
        fill: #0095c6;
      }

      .cls-32 {
        opacity: .38;
      }

      .cls-14 {
        fill: #00b8da;
      }

      .cls-15 {
        fill: #ff8053;
      }

      .cls-33 {
        clip-path: url(#clippath);
      }

      .cls-16 {
        opacity: .65;
      }

      .cls-17 {
        fill: #d94141;
      }

      .cls-18 {
        fill: #61c9a3;
      }

      .cls-19 {
        fill: #100e0e;
      }

      .cls-20 {
        opacity: .29;
      }

      .cls-21 {
        fill: #3ca6bf;
      }

      .cls-22 {
        fill: #c5e0e3;
      }
    </style>
    <clipPath id="clippath">
      <path class="cls-7" d="M173.62,175.62h38.43v117.61c0,10.27-8.34,18.61-18.61,18.61h-1.22c-10.27,0-18.61-8.34-18.61-18.61v-117.61h0Z"/>
    </clipPath>
    <clipPath id="clippath-1">
      <path class="cls-7" d="M227.61,175.62h38.43v117.61c0,10.27-8.34,18.61-18.61,18.61h-1.22c-10.27,0-18.61-8.34-18.61-18.61v-117.61h0Z"/>
    </clipPath>
    <clipPath id="clippath-2">
      <path class="cls-7" d="M281.6,175.62h38.43v117.61c0,10.27-8.34,18.61-18.61,18.61h-1.22c-10.27,0-18.61-8.34-18.61-18.61v-117.61h0Z"/>
    </clipPath>
  </defs>
  <path class="cls-22" d="M408.2,61.26c13.47,29.86,10.12,50.71,8.22,82.85-2.08,35.13-1.37,70.42,2.12,105.44,4.79,48.04-1.23,92.43-48.88,116-40.16,19.87-72.58,10.29-114.33,8.58-39.83-1.63-79.35,5.56-118.98,8.14-38.21,2.49-101.12-13.91-124.16-47.35-15.78-22.9-12.85-57.51-9.65-83.92,2.12-17.48,5.41-34.81,9.86-51.84C24.71,151.99,3.94,99.25,29.11,55.06,45.66,25.99,78.42,5.56,112.27,6.84c25.05.95,48.74,12.13,73.72,14.11,28.57,2.27,56.5-7.56,84.19-14.99,57.09-15.31,111.83-2.62,137.97,55.19.02.04.03.07.05.11Z"/>
  <g>
    <rect class="cls-5" x="161.43" y="295.67" width="169.74" height="36.72"/>
    <rect class="cls-5" x="143.1" y="329.96" width="206.41" height="10.29" rx="1.48" ry="1.48"/>
    <path class="cls-21" d="M343.51,332.96h-16.33v-37.28h-4.8c-1.22,10.49-10.14,18.66-20.95,18.66h-1.22c-10.81,0-19.74-8.17-20.95-18.66h-10.86c-1.22,10.49-10.14,18.66-20.95,18.66h-1.22c-10.81,0-19.74-8.17-20.95-18.66h-10.86c-1.22,10.49-10.14,18.66-20.95,18.66h-1.22c-10.81,0-19.74-8.17-20.95-18.66h-6.84v37.28h-15.33v4.29h194.41v-4.29Z"/>
    <rect class="cls-16" x="164.43" y="324.32" width="163.81" height="8.63"/>
    <rect class="cls-16" x="164.43" y="307.01" width="163.81" height="8.63"/>
  </g>
  <path class="cls-12" d="M93.74,149.97c.01.07.02.15.03.22.73,4.45.85,9.01,1.09,13.56.13,2.46,1.33,29.44,1.56,29.44,5.03,1.25,10.07,2.5,15.1,3.75.01-12.62-.52-25.25-1.59-37.83-.85-9.97-1.93-20.11-5.87-29.43-.53-1.25-1.12-2.5-2.06-3.48-1.72-1.79-4.8-2.66-7.25-2.34-2.34.31-3.06,2.46-3.01,4.67.11,4.73,2.04,6.76,2.48,11.47.32,3.36-.95,6.62-.48,9.96Z"/>
  <g>
    <path class="cls-24" d="M8.79,346.89c.5-.7,1.11-1.33,1.69-1.97,2.05-2.26,3.84-4.77,5.31-7.45,1.14-2.08,2.12-4.3,3.75-6.03,2.26-2.41,8.23-4.42,9.55.21.9,3.13-1.58,6.58-2.85,9.25-1.13,2.38-2.28,4.82-2.62,7.44-.72,5.61,4.59,10.53,7.22,15.12,1.9,3.3.46,4.82-3.34,3.62-3.06-.97-5.47-3.4-7.69-5.59-2.99-2.95-14.21-8.67-11.51-13.79.15-.28.31-.54.49-.79Z"/>
    <path class="cls-14" d="M53.37,215.75c-4.17,2.69-6.97,7.06-9.02,11.58-6.1,13.42-6.5,28.61-8.32,43.24-2.82,22.59-16.48,38.59-22.51,59.85-1.93,6.81-3.05,4.97,1.72,9.51,1.2,1.14,11.08,6.72,12.45,6.25,6.26-2.18,11.21-11.83,14.19-16.71,5.02-8.2,11.12-15.6,15.44-24.29,10.13-20.43,11.4-42.2,16.45-63.89,2.86-12.27-2.79-36.88-20.38-25.52Z"/>
    <path class="cls-11" d="M98,360.34c.39.76,1,1.41,1.64,1.99,3.33,3.01,7.68,4.59,11.91,6.09.89.32,1.83.67,2.41,1.41,2.12,2.71-2.36,4.2-4.18,4.34-2.61.2-5.22-.27-7.79-.78-2.92-.58-5.83-1.21-8.74-1.86-1.63-.36-5.68-.44-6.94-1.48-2.34-1.93-.5-8.18-.2-10.71.28-2.39.68-4.84,1.97-6.86,1.29-2.03,3.69-3.53,6.04-3.08,4.36.84,3.33,4.9,3.38,8.24,0,.68.02,1.38.22,2.03.07.23.16.46.27.67Z"/>
    <path class="cls-14" d="M82.33,350.47c.4,1.7.84,3.38,1.31,5.04,2.99-1.34,17.5-.62,18.47-2.75,2.38-5.27,1.57-15.14,1.83-19.93.78-14.2,1.5-28.57,1.2-42.81-.18-8.65-.46-17.18-.68-25.66-.1-.16-.13-.36-.04-.59,0-.03.02-.05.03-.08-.4-15.99-.54-31.84.77-48.01.65-8.02-4.5-14.24-13.87-15.57-10.25-1.45-21.64,8.55-25.15,17.81-1.33,3.52,3.35,7.57,3.35,11.57,0,12.48,1.75,22.18,3.79,33.11,2.75,14.77,2.23,29.56,3.48,44.42,1.18,14.16,2.2,29.42,5.52,43.44Z"/>
  </g>
  <g>
    <circle class="cls-18" cx="198.39" cy="59.86" r="17.77" transform="translate(94.23 239) rotate(-76.61)"/>
    <path class="cls-18" d="M196.75,35.5c0,2.52-2.05,4.57-4.57,4.57s-4.57-2.05-4.57-4.57,2.05-4.57,4.57-4.57,4.57,2.05,4.57,4.57Z"/>
    <circle class="cls-18" cx="215.41" cy="40.07" r="3.24"/>
    <circle class="cls-18" cx="174.1" cy="65.54" r="4.53"/>
    <path class="cls-18" d="M177.43,49.09c0,1.58-1.28,2.86-2.86,2.86s-2.86-1.28-2.86-2.86,1.28-2.86,2.86-2.86,2.86,1.28,2.86,2.86Z"/>
    <path class="cls-18" d="M225.21,58.39c0,1.45-1.17,2.62-2.62,2.62s-2.62-1.17-2.62-2.62,1.17-2.62,2.62-2.62,2.62,1.17,2.62,2.62Z"/>
    <circle class="cls-18" cx="183.81" cy="79.37" r="3.33"/>
    <path class="cls-18" d="M207.93,83.85c0,1.58-1.28,2.86-2.86,2.86s-2.86-1.28-2.86-2.86,1.28-2.86,2.86-2.86,2.86,1.28,2.86,2.86Z"/>
    <circle class="cls-18" cx="220.59" cy="75.52" r="3.85"/>
    <path class="cls-18" d="M215.38,40.37c-.36-.36-1.1-.43-1.45,0-2.89,3.53-5.41,7.35-7.48,11.42-.6,1.18,1.17,2.22,1.78,1.04,1.99-3.91,4.38-7.61,7.16-11.01.35-.43.42-1.03,0-1.45Z"/>
    <path class="cls-18" d="M197.16,54.42c-.94-5.73-2.14-11.42-3.59-17.05-.34-1.31-2.37-.76-2.03.56,1.45,5.63,2.65,11.32,3.59,17.05.09.56.79.88,1.3.74.6-.16.83-.73.74-1.3Z"/>
    <path class="cls-18" d="M192.7,67.64c-.52-.31-1.06-.07-1.39.37l-8.59,11.35c-.33.44-.07,1.14.36,1.39.52.31,1.06.07,1.39-.36l8.59-11.35c.33-.44.07-1.14-.37-1.39Z"/>
    <path class="cls-18" d="M206.19,83.8c-.83-2.73-1.46-5.52-1.88-8.34-.08-.53-.75-.82-1.22-.69-.57.16-.77.69-.69,1.22.42,2.82,1.05,5.61,1.88,8.34.37,1.22,2.29.7,1.92-.53Z"/>
    <path class="cls-18" d="M222.84,57.24c-4.29,1.15-8.58,2.29-12.87,3.44-1.3.35-.75,2.37.56,2.02,4.29-1.15,8.58-2.29,12.87-3.44,1.3-.35.75-2.37-.56-2.02Z"/>
    <path class="cls-18" d="M221.76,74.52c-3.39-2.36-6.56-5.02-9.49-7.93-1.07-1.06-2.73.59-1.66,1.66,3.07,3.05,6.41,5.82,9.96,8.29.52.36,1.3.09,1.6-.42.34-.58.1-1.24-.42-1.6Z"/>
    <path class="cls-18" d="M187.11,63.62c-.16-.58-.71-.81-1.26-.72-4.25.67-8.51,1.35-12.76,2.02-.55.09-.85.77-.72,1.26.16.58.71.8,1.26.72,4.25-.67,8.51-1.35,12.76-2.02.55-.09.85-.77.72-1.26Z"/>
    <path class="cls-18" d="M186.86,50.98c-3.75-.53-7.42-1.49-10.95-2.87-.43-.17-.95.19-1.06.6-.13.49.17.89.6,1.06,3.53,1.38,7.2,2.34,10.95,2.87.46.07.93-.11,1.06-.6.11-.4-.14-1-.6-1.06Z"/>
    <circle class="cls-2" cx="200.44" cy="50.36" r="3.26"/>
    <circle class="cls-2" cx="189.12" cy="64.91" r="3.8"/>
    <path class="cls-2" d="M200.49,71.76c0,1.16-.94,2.1-2.1,2.1s-2.1-.94-2.1-2.1.94-2.1,2.1-2.1,2.1.94,2.1,2.1Z"/>
    <circle class="cls-2" cx="199.3" cy="61.01" r="2.1"/>
    <path class="cls-2" d="M212.3,56.39c0,1.61-1.3,2.91-2.91,2.91s-2.91-1.3-2.91-2.91,1.3-2.91,2.91-2.91,2.91,1.3,2.91,2.91Z"/>
    <path class="cls-2" d="M208.12,67.89c0,.91-.74,1.64-1.64,1.64s-1.64-.74-1.64-1.64.74-1.64,1.64-1.64,1.64.74,1.64,1.64Z"/>
    <circle class="cls-2" cx="189.59" cy="53.17" r="2.59"/>
  </g>
  <g>
    <path class="cls-18" d="M218.11,128.2c.78-1.85,1.7-3.65,2.74-5.37.2-.32-.03-.79-.35-.93-.38-.17-.73.02-.93.35-1.04,1.72-1.96,3.51-2.74,5.37-.35.83.93,1.41,1.28.58Z"/>
    <path class="cls-18" d="M235.4,117.9c-3.52,5.96-11.2,7.94-17.16,4.42-5.96-3.52-7.94-11.2-4.42-17.16s11.2-7.94,17.16-4.42c5.96,3.52,7.94,11.2,4.42,17.16Z"/>
    <path class="cls-18" d="M232.35,96.16c-.9,1.53-2.88,2.04-4.41,1.14-1.53-.9-2.04-2.88-1.13-4.41.9-1.53,2.88-2.04,4.41-1.14,1.53.9,2.04,2.88,1.13,4.41Z"/>
    <path class="cls-18" d="M242.13,106.99c-.4.67-1.26.89-1.93.5-.67-.4-.89-1.26-.5-1.93.4-.67,1.26-.89,1.93-.5.67.4.89,1.26.5,1.93Z"/>
    <path class="cls-18" d="M210.58,107.89c-.9,1.52-2.86,2.02-4.38,1.13-1.52-.9-2.02-2.86-1.13-4.38.9-1.52,2.86-2.02,4.38-1.13s2.02,2.86,1.13,4.38Z"/>
    <path class="cls-18" d="M217.27,97.68c-1.03.99-2.67.96-3.66-.07-.99-1.03-.96-2.67.07-3.66,1.03-.99,2.67-.96,3.66.07.99,1.03.96,2.67-.07,3.66Z"/>
    <path class="cls-18" d="M241.52,120.35c-.57.97-1.83,1.3-2.8.72s-1.3-1.83-.72-2.8c.57-.97,1.83-1.3,2.8-.72.97.58,1.3,1.83.72,2.8Z"/>
    <path class="cls-18" d="M210.21,119c-.47.8-1.5,1.07-2.3.59-.8-.47-1.07-1.5-.59-2.3.47-.8,1.5-1.07,2.3-.59.8.47,1.07,1.5.59,2.3Z"/>
    <path class="cls-18" d="M220.13,129.92c-1.22,1.46-3.39,1.66-4.85.44-1.46-1.22-1.66-3.39-.44-4.85s3.39-1.66,4.85-.44c1.46,1.22,1.66,3.39.44,4.85Z"/>
    <path class="cls-18" d="M234.81,130.38c-.76,1.29-2.43,1.72-3.72.96-1.29-.76-1.72-2.43-.96-3.72.76-1.29,2.43-1.72,3.72-.96,1.29.76,1.72,2.43.96,3.72Z"/>
    <path class="cls-18" d="M240.59,106.4c-.07-.26-.38-.48-.65-.38-2.22.81-4.34,1.85-6.33,3.12-.58.37-.06,1.3.52.93,1.91-1.22,3.95-2.23,6.08-3.01.27-.1.46-.35.38-.65Z"/>
    <path class="cls-18" d="M225.99,106.95c1.28-3.29,2.41-6.63,3.39-10.02.23-.79-1.01-1.13-1.24-.33-.98,3.39-2.11,6.73-3.39,10.02-.13.32.14.7.45.79.36.1.66-.13.79-.45Z"/>
    <path class="cls-18" d="M216.62,114.96c-.14-.25-.41-.28-.65-.19l-6.2,2.54c-.24.1-.3.44-.19.65.14.25.41.28.65.19l6.2-2.54c.24-.1.3-.44.19-.65Z"/>
    <path class="cls-18" d="M240.39,118.7c-3.01-.84-6.03-1.69-9.04-2.53-.91-.26-1.3,1.17-.39,1.42,3.01.84,6.03,1.69,9.04,2.53.91.26,1.3-1.17.39-1.42Z"/>
    <path class="cls-18" d="M233.54,128.81c-1.21-2.65-2.18-5.4-2.92-8.21-.27-1.03-1.87-.62-1.6.41.77,2.95,1.81,5.83,3.07,8.61.19.41.76.52,1.12.32.42-.23.51-.72.32-1.12Z"/>
    <path class="cls-18" d="M216.41,109.77c.11-.41-.14-.74-.51-.89-2.82-1.12-5.65-2.23-8.47-3.35-.36-.14-.79.16-.89.51-.11.41.14.74.51.89l8.47,3.35c.36.14.79-.16.89-.51Z"/>
    <path class="cls-18" d="M219.88,101.52c-1.53-2.11-2.81-4.4-3.81-6.8-.12-.3-.55-.38-.81-.24-.31.17-.36.51-.24.81,1,2.41,2.28,4.69,3.81,6.8.19.26.5.41.81.24.25-.14.43-.54.24-.81Z"/>
    <path class="cls-2" d="M231.24,107.67c-.65,1.09-2.05,1.45-3.15.81-1.09-.65-1.45-2.05-.81-3.15.65-1.09,2.05-1.45,3.15-.81,1.09.65,1.45,2.05.81,3.15Z"/>
    <path class="cls-2" d="M219.48,112.63c-.75,1.27-2.4,1.7-3.67.94-1.27-.75-1.7-2.4-.94-3.67.75-1.27,2.4-1.7,3.67-.94,1.27.75,1.7,2.4.94,3.67Z"/>
    <path class="cls-2" d="M221.62,119.51c-.42.7-1.33.94-2.03.52-.7-.42-.94-1.33-.52-2.03.42-.7,1.33-.94,2.03-.52s.94,1.33.52,2.03Z"/>
    <path class="cls-2" d="M226.03,113.31c-.42.7-1.33.94-2.03.52s-.94-1.33-.52-2.03c.42-.7,1.33-.94,2.03-.52.7.42.94,1.33.52,2.03Z"/>
    <path class="cls-2" d="M234.3,114.41c-.58.98-1.84,1.3-2.81.72s-1.3-1.84-.72-2.81c.58-.98,1.84-1.3,2.81-.72.98.58,1.3,1.84.72,2.81Z"/>
    <path class="cls-2" d="M227.64,119.89c-.33.55-1.04.73-1.59.41s-.73-1.04-.41-1.59,1.04-.73,1.59-.41c.55.33.73,1.04.41,1.59Z"/>
    <path class="cls-2" d="M223.24,105.25c-.51.87-1.63,1.16-2.5.64s-1.16-1.63-.64-2.5c.51-.87,1.63-1.16,2.5-.64.87.51,1.16,1.63.64,2.5Z"/>
  </g>
  <g>
    <path class="cls-18" d="M275.78,66.5c2.84,7.2-1.02,15.47-8.61,18.46-7.59,2.99-16.05-.43-18.88-7.63-2.84-7.2,1.02-15.47,8.61-18.46,7.59-2.99,16.05.43,18.88,7.63Z"/>
    <path class="cls-18" d="M253.72,54.53c.73,1.85-.26,3.98-2.21,4.74-1.95.77-4.12-.11-4.85-1.96-.73-1.85.26-3.98,2.21-4.74,1.95-.77,4.12.11,4.85,1.96Z"/>
    <path class="cls-18" d="M271.98,51.21c.52,1.31-.19,2.82-1.57,3.36-1.38.54-2.92-.08-3.44-1.39-.52-1.31.19-2.82,1.57-3.36,1.38-.54,2.92.08,3.44,1.39Z"/>
    <path class="cls-18" d="M248.39,82.1c.72,1.84-.26,3.94-2.2,4.71-1.94.76-4.09-.11-4.82-1.95-.72-1.84.26-3.94,2.2-4.71,1.94-.76,4.09.11,4.82,1.95Z"/>
    <path class="cls-18" d="M242.7,70.39c.46,1.16-.16,2.49-1.38,2.97-1.22.48-2.58-.07-3.03-1.23-.46-1.16.16-2.49,1.38-2.97,1.22-.48,2.58.07,3.03,1.23Z"/>
    <path class="cls-18" d="M282.35,62.66c.42,1.06-.15,2.28-1.27,2.72-1.12.44-2.36-.06-2.78-1.12s.15-2.28,1.27-2.72c1.12-.44,2.36.06,2.78,1.12Z"/>
    <path class="cls-18" d="M258.97,89.66c.53,1.35-.19,2.9-1.61,3.46-1.42.56-3.01-.08-3.54-1.43-.53-1.35.19-2.9,1.61-3.46,1.42-.56,3.01.08,3.54,1.43Z"/>
    <path class="cls-18" d="M276.34,86.61c.46,1.16-.16,2.49-1.38,2.97-1.22.48-2.58-.07-3.03-1.23-.46-1.16.16-2.49,1.38-2.97,1.22-.48,2.58.07,3.03,1.23Z"/>
    <path class="cls-18" d="M286.71,75.47c.62,1.56-.22,3.35-1.87,4-1.65.65-3.48-.09-4.1-1.66-.62-1.56.22-3.35,1.87-4,1.65-.65,3.48.09,4.1,1.66Z"/>
    <path class="cls-18" d="M269.53,52.43c-.39-.16-.98.02-1.12.44-1.22,3.47-2.06,7.04-2.49,10.66-.12,1.05,1.55,1.27,1.67.22.41-3.48,1.19-6.92,2.36-10.26.15-.42.03-.89-.42-1.07Z"/>
    <path class="cls-18" d="M259.51,68.29c-2.38-3.92-4.96-7.73-7.71-11.42-.64-.86-2.06.17-1.41,1.03,2.75,3.69,5.32,7.5,7.71,11.42.23.38.86.4,1.22.15.41-.3.43-.79.19-1.18Z"/>
    <path class="cls-18" d="M259.88,79.35c-.49-.06-.84.27-.97.69l-3.36,10.94c-.13.42.28.86.68.91.49.07.84-.27.97-.69l3.36-10.94c.13-.42-.28-.86-.68-.91Z"/>
    <path class="cls-18" d="M274.99,87.11c-1.43-1.75-2.72-3.6-3.87-5.55-.22-.37-.82-.38-1.15-.14-.39.29-.4.74-.18,1.11,1.14,1.94,2.44,3.8,3.87,5.55.64.78,1.98-.18,1.33-.97Z"/>
    <path class="cls-18" d="M280.18,62.54c-2.99,2.15-5.97,4.29-8.96,6.44-.9.65.1,1.96,1.01,1.31,2.99-2.15,5.97-4.29,8.96-6.44.9-.65-.1-1.96-1.01-1.31Z"/>
    <path class="cls-18" d="M284.35,75.55c-3.3-.7-6.52-1.69-9.63-2.93-1.14-.45-1.94,1.27-.8,1.72,3.26,1.3,6.64,2.32,10.1,3.05.51.11,1.03-.33,1.12-.8.1-.53-.28-.94-.79-1.05Z"/>
    <path class="cls-18" d="M254.39,78.11c-.29-.38-.78-.37-1.19-.14-3.1,1.79-6.19,3.58-9.29,5.37-.4.23-.44.83-.19,1.15.29.38.78.37,1.19.14,3.1-1.79,6.19-3.58,9.29-5.37.4-.23.44-.83.19-1.15Z"/>
    <path class="cls-18" d="M250.55,68.91c-3.05.75-6.17,1.16-9.3,1.23-.38,0-.68.43-.65.77.04.4.39.6.77.6,3.12-.06,6.24-.48,9.3-1.23.38-.09.68-.37.65-.77-.03-.33-.39-.69-.77-.6Z"/>
    <path class="cls-2" d="M263.39,63.32c.52,1.32-.19,2.84-1.58,3.38s-2.94-.08-3.46-1.4.19-2.84,1.58-3.38c1.39-.55,2.94.08,3.46,1.4Z"/>
    <path class="cls-2" d="M259.26,77.28c.61,1.54-.22,3.31-1.84,3.95s-3.43-.09-4.04-1.63.22-3.31,1.84-3.95c1.62-.64,3.43.09,4.04,1.63Z"/>
    <path class="cls-2" d="M267.1,80.01c.34.85-.12,1.83-1.02,2.18-.9.35-1.9-.05-2.23-.9-.34-.85.12-1.83,1.02-2.18s1.9.05,2.23.9Z"/>
    <path class="cls-2" d="M264.7,71.83c.34.85-.12,1.83-1.02,2.18s-1.9-.05-2.23-.9c-.34-.85.12-1.83,1.02-2.18.9-.35,1.9.05,2.23.9Z"/>
    <path class="cls-2" d="M271.79,65.12c.46,1.18-.17,2.54-1.41,3.03-1.24.49-2.63-.07-3.1-1.25-.46-1.18.17-2.54,1.41-3.03,1.24-.49,2.63.07,3.1,1.25Z"/>
    <path class="cls-2" d="M271.88,74.84c.26.67-.09,1.43-.8,1.71-.7.28-1.48-.04-1.75-.71-.26-.67.09-1.43.8-1.71.7-.28,1.48.04,1.75.71Z"/>
    <path class="cls-2" d="M255.3,68.89c.41,1.05-.15,2.26-1.26,2.69-1.11.44-2.34-.06-2.76-1.11-.41-1.05.15-2.26,1.26-2.69,1.11-.44,2.34.06,2.76,1.11Z"/>
  </g>
  <g class="cls-31">
    <g>
      <path class="cls-8" d="M394.29,82.74c-4.08,4.23-10.82,4.36-15.05.29-4.23-4.08-4.36-10.82-.29-15.05s10.82-4.36,15.05-.29c4.23,4.08,4.36,10.82.29,15.05Z"/>
      <path class="cls-8" d="M396.04,64.17c-1.05,1.09-2.78,1.12-3.87.07-1.09-1.05-1.12-2.78-.07-3.87,1.05-1.09,2.78-1.12,3.87-.07,1.09,1.05,1.12,2.78.07,3.87Z"/>
      <path class="cls-8" d="M403.58,75.23c-.74.77-1.97.79-2.74.05-.77-.74-.79-1.97-.05-2.74.74-.77,1.97-.79,2.74-.05.77.74.79,1.97.05,2.74Z"/>
      <path class="cls-8" d="M375.74,69.6c-1.04,1.08-2.76,1.11-3.84.07-1.08-1.04-1.11-2.76-.07-3.84,1.04-1.08,2.76-1.11,3.84-.07,1.08,1.04,1.11,2.76.07,3.84Z"/>
      <path class="cls-8" d="M382.06,62.01c-.65.68-1.74.7-2.42.05-.68-.66-.7-1.74-.05-2.42s1.74-.7,2.42-.05c.68.65.7,1.74.05,2.42Z"/>
      <path class="cls-8" d="M398.81,85.87c-.6.62-1.59.64-2.22.04-.62-.6-.64-1.59-.04-2.22s1.59-.64,2.22-.04c.62.6.64,1.59.04,2.22Z"/>
      <path class="cls-8" d="M373.67,79.11c-.76.79-2.03.82-2.82.05-.79-.76-.82-2.03-.05-2.82.76-.79,2.03-.82,2.82-.05.79.76.82,2.03.05,2.82Z"/>
      <path class="cls-8" d="M380.78,89.67c-.65.68-1.74.7-2.42.05s-.7-1.74-.05-2.42,1.74-.7,2.42-.05.7,1.74.05,2.42Z"/>
      <path class="cls-8" d="M391.36,92.94c-.88.92-2.35.95-3.26.06s-.95-2.35-.06-3.26c.88-.92,2.35-.95,3.26-.06s.95,2.35.06,3.26Z"/>
      <path class="cls-8" d="M402.05,74.01c0-.31-.3-.64-.63-.6-2.72.32-5.39.92-7.97,1.82-.75.26-.41,1.45.33,1.19,2.48-.86,5.05-1.46,7.66-1.77.33-.04.61-.27.6-.63Z"/>
      <path class="cls-8" d="M388.36,72.5c1.98-2.86,3.82-5.82,5.53-8.85.4-.71-.71-1.31-1.11-.6-1.71,3.03-3.56,5.98-5.53,8.85-.19.28-.02.71.25.86.33.18.66.03.86-.25Z"/>
      <path class="cls-8" d="M380.94,76.35c-.1-.35-.43-.47-.75-.42l-8.42,1.33c-.33.05-.5.46-.42.75.1.35.43.47.75.42l8.42-1.33c.33-.05.5-.46.42-.75Z"/>
      <path class="cls-8" d="M380.05,88.93c.78-1.52,1.66-2.99,2.65-4.38.19-.26.02-.67-.24-.81-.31-.17-.62-.02-.81.24-.99,1.39-1.88,2.86-2.65,4.38-.35.68.7,1.25,1.05.57Z"/>
      <path class="cls-8" d="M398.26,84.38c-2.33-1.29-4.65-2.58-6.98-3.86-.7-.39-1.31.71-.6,1.1,2.33,1.29,4.65,2.58,6.98,3.86.7.39,1.31-.71.6-1.1Z"/>
      <path class="cls-8" d="M390.62,91.39c-.48-2.43-.74-4.89-.8-7.36-.02-.9-1.42-.88-1.4.03.06,2.59.35,5.17.85,7.72.07.37.52.58.87.48.39-.11.56-.49.48-.87Z"/>
      <path class="cls-8" d="M380.2,72.3c.17-.32.03-.64-.25-.83-2.11-1.48-4.23-2.95-6.34-4.43-.27-.19-.69-.02-.83.25-.17.32-.03.64.25.83,2.11,1.48,4.23,2.95,6.34,4.43.27.19.69.02.83-.25Z"/>
      <path class="cls-8" d="M385.34,66.74c-1.4-1.79-2.58-3.73-3.53-5.78-.12-.25-.49-.31-.71-.18-.26.15-.3.45-.18.71.95,2.06,2.13,4,3.53,5.78.17.22.45.34.71.18.22-.13.35-.49.18-.71Z"/>
      <path class="cls-3" d="M392.86,73.47c-.75.78-1.98.8-2.76.05-.78-.75-.8-1.98-.05-2.76.75-.78,1.98-.8,2.76-.05.78.75.8,1.98.05,2.76Z"/>
      <path class="cls-3" d="M382.17,75.27c-.87.91-2.31.93-3.22.06-.91-.87-.93-2.31-.06-3.22.87-.91,2.31-.93,3.22-.06.91.87.93,2.31.06,3.22Z"/>
      <path class="cls-3" d="M382.59,81.37c-.48.5-1.28.52-1.78.03-.5-.48-.52-1.28-.03-1.78.48-.5,1.28-.52,1.78-.03.5.48.52,1.28.03,1.78Z"/>
      <path class="cls-3" d="M387.45,77.11c-.48.5-1.28.52-1.78.03s-.52-1.28-.03-1.78c.48-.5,1.28-.52,1.78-.03.5.48.52,1.28.03,1.78Z"/>
      <path class="cls-3" d="M394.07,79.64c-.67.69-1.77.71-2.47.05-.69-.67-.71-1.77-.05-2.47.67-.69,1.77-.72,2.47-.05s.71,1.77.05,2.47Z"/>
      <path class="cls-3" d="M387.49,82.87c-.38.39-1,.4-1.39.03-.39-.38-.4-1-.03-1.39.38-.39,1-.4,1.39-.03.39.38.4,1,.03,1.39Z"/>
      <path class="cls-3" d="M386.73,69.9c-.59.62-1.58.64-2.2.04-.62-.59-.64-1.58-.04-2.2.59-.62,1.58-.64,2.2-.04.62.59.64,1.58.04,2.2Z"/>
    </g>
    <g>
      <circle class="cls-8" cx="80.42" cy="40.88" r="10.64" transform="translate(8.83 95.77) rotate(-64.42)"/>
      <path class="cls-8" d="M95.02,40.06c-1.51-.02-2.72-1.26-2.7-2.77.02-1.51,1.26-2.72,2.77-2.7,1.51.02,2.72,1.26,2.7,2.77-.02,1.51-1.26,2.72-2.77,2.7Z"/>
      <path class="cls-8" d="M92.13,53.14c-1.07-.01-1.93-.89-1.92-1.96.01-1.07.89-1.93,1.96-1.92,1.07.01,1.93.89,1.92,1.96-.01,1.07-.89,1.93-1.96,1.92Z"/>
      <path class="cls-8" d="M77.16,29.01c-1.5-.02-2.7-1.25-2.68-2.75s1.25-2.7,2.75-2.68c1.5.02,2.7,1.25,2.68,2.75-.02,1.5-1.25,2.7-2.75,2.68Z"/>
      <path class="cls-8" d="M87.01,28.4c-.94-.01-1.7-.79-1.69-1.73.01-.94.79-1.7,1.73-1.69.94.01,1.7.79,1.69,1.73s-.79,1.7-1.73,1.69Z"/>
      <path class="cls-8" d="M81.12,56.95c-.87-.01-1.56-.72-1.55-1.59,0-.87.72-1.56,1.59-1.55s1.56.72,1.55,1.59c-.01.87-.72,1.56-1.59,1.55Z"/>
      <path class="cls-8" d="M68.81,34.01c-1.1-.01-1.99-.92-1.97-2.02.01-1.1.92-1.99,2.02-1.97s1.99.92,1.97,2.02c-.01,1.1-.92,1.99-2.02,1.97Z"/>
      <path class="cls-8" d="M65.99,46.42c-.94-.01-1.7-.79-1.69-1.73s.79-1.7,1.73-1.69,1.7.79,1.69,1.73-.79,1.7-1.73,1.69Z"/>
      <path class="cls-8" d="M70.86,56.37c-1.27-.01-2.3-1.06-2.28-2.34.01-1.27,1.06-2.3,2.33-2.28,1.27.01,2.3,1.06,2.28,2.33-.01,1.27-1.06,2.3-2.33,2.28Z"/>
      <path class="cls-8" d="M91.98,51.18c.22-.21.27-.66,0-.87-2.1-1.76-4.37-3.29-6.79-4.56-.7-.37-1.34.69-.63,1.06,2.33,1.22,4.53,2.68,6.54,4.36.25.21.62.26.87,0Z"/>
      <path class="cls-8" d="M83.69,40.18c3.44-.52,6.86-1.2,10.24-2.03.79-.19.47-1.42-.32-1.22-3.38.83-6.79,1.51-10.24,2.03-.34.05-.53.47-.45.77.09.36.43.5.77.45Z"/>
      <path class="cls-8" d="M75.8,37.41c.19-.31.05-.63-.21-.84l-6.74-5.22c-.26-.2-.68-.05-.84.21-.19.31-.05.63.21.84l6.74,5.22c.26.2.68.05.84-.21Z"/>
      <path class="cls-8" d="M66.03,45.38c1.64-.48,3.31-.84,5.01-1.07.32-.04.5-.44.42-.73-.09-.34-.41-.47-.73-.42-1.69.23-3.37.59-5.01,1.07-.73.21-.44,1.37.3,1.15Z"/>
      <path class="cls-8" d="M81.82,55.54c-.66-2.58-1.31-5.15-1.97-7.73-.2-.78-1.41-.46-1.21.32.66,2.58,1.31,5.15,1.97,7.73.2.78,1.41.46,1.21-.32Z"/>
      <path class="cls-8" d="M71.48,54.77c1.44-2.01,3.05-3.89,4.81-5.63.64-.63-.34-1.64-.98-1-1.85,1.82-3.53,3.8-5.04,5.91-.22.31-.07.78.24.96.35.21.74.07.96-.24Z"/>
      <path class="cls-8" d="M78.24,34.1c.35-.09.49-.42.44-.75-.37-2.55-.75-5.1-1.12-7.66-.05-.33-.46-.52-.75-.44-.35.09-.49.42-.44.75l1.12,7.66c.05.33.46.52.75.44Z"/>
      <path class="cls-8" d="M85.81,34.04c.34-2.24.95-4.43,1.79-6.53.1-.26-.1-.57-.35-.64-.29-.08-.53.09-.64.35-.85,2.1-1.45,4.29-1.79,6.53-.04.28.06.56.35.64.24.07.6-.08.64-.35Z"/>
      <path class="cls-3" d="M86.07,44.12c-1.08-.01-1.94-.9-1.93-1.97.01-1.08.9-1.94,1.97-1.93,1.08.01,1.94.9,1.93,1.97-.01,1.08-.9,1.94-1.97,1.93Z"/>
      <path class="cls-3" d="M77.44,37.57c-1.26-.01-2.27-1.05-2.25-2.3.01-1.26,1.05-2.27,2.3-2.25,1.26.01,2.27,1.05,2.25,2.3-.01,1.26-1.05,2.27-2.3,2.25Z"/>
      <path class="cls-3" d="M73.28,42.05c-.7,0-1.25-.58-1.24-1.27,0-.7.58-1.25,1.27-1.24s1.25.58,1.24,1.27-.58,1.25-1.27,1.24Z"/>
      <path class="cls-3" d="M79.71,42.68c-.7,0-1.25-.58-1.24-1.27,0-.7.58-1.25,1.27-1.24.7,0,1.25.58,1.24,1.27,0,.7-.58,1.25-1.27,1.24Z"/>
      <path class="cls-3" d="M82.4,49.23c-.96-.01-1.74-.8-1.72-1.76s.8-1.74,1.76-1.72c.96.01,1.74.8,1.72,1.76s-.8,1.74-1.76,1.72Z"/>
      <path class="cls-3" d="M75.54,46.65c-.54,0-.98-.45-.97-1,0-.54.45-.98,1-.97.54,0,.98.45.97,1,0,.54-.45.98-1,.97Z"/>
      <path class="cls-3" d="M84.47,37.21c-.86,0-1.54-.71-1.54-1.57s.71-1.55,1.57-1.54,1.54.71,1.54,1.57-.71,1.55-1.57,1.54Z"/>
    </g>
    <g>
      <circle class="cls-8" cx="14.25" cy="183.32" r="6.88"/>
      <path class="cls-8" d="M13.61,173.89c0,.98-.79,1.77-1.77,1.77s-1.77-.79-1.77-1.77.79-1.77,1.77-1.77,1.77.79,1.77,1.77Z"/>
      <path class="cls-8" d="M22.09,175.66c0,.69-.56,1.25-1.25,1.25s-1.25-.56-1.25-1.25.56-1.25,1.25-1.25,1.25.56,1.25,1.25Z"/>
      <circle class="cls-8" cx="4.85" cy="185.52" r="1.75"/>
      <path class="cls-8" d="M6.13,179.15c0,.61-.49,1.11-1.11,1.11s-1.11-.49-1.11-1.11.49-1.11,1.11-1.11,1.11.49,1.11,1.11Z"/>
      <circle class="cls-8" cx="23.61" cy="182.75" r="1.01"/>
      <circle class="cls-8" cx="8.6" cy="190.87" r="1.29"/>
      <circle class="cls-8" cx="16.83" cy="192.6" r="1.11"/>
      <path class="cls-8" d="M24.33,189.38c0,.82-.67,1.49-1.49,1.49s-1.49-.67-1.49-1.49.67-1.49,1.49-1.49,1.49.67,1.49,1.49Z"/>
      <path class="cls-8" d="M20.82,175.77c-.14-.14-.43-.17-.56,0-1.12,1.37-2.09,2.85-2.9,4.42-.23.46.45.86.69.4.77-1.51,1.7-2.95,2.77-4.26.14-.17.16-.4,0-.56Z"/>
      <path class="cls-8" d="M13.77,181.21c-.36-2.22-.83-4.42-1.39-6.6-.13-.51-.92-.29-.79.22.56,2.18,1.03,4.38,1.39,6.6.04.22.31.34.5.29.23-.06.32-.28.29-.5Z"/>
      <path class="cls-8" d="M12.04,186.33c-.2-.12-.41-.03-.54.14l-3.32,4.39c-.13.17-.03.44.14.54.2.12.41.03.54-.14l3.32-4.39c.13-.17.03-.44-.14-.54Z"/>
      <path class="cls-8" d="M17.27,192.59c-.32-1.06-.57-2.14-.73-3.23-.03-.21-.29-.32-.47-.27-.22.06-.3.27-.27.47.16,1.09.41,2.17.73,3.23.14.47.89.27.74-.2Z"/>
      <path class="cls-8" d="M23.71,182.3c-1.66.44-3.32.89-4.98,1.33-.5.13-.29.92.22.78,1.66-.44,3.32-.89,4.98-1.33.5-.13.29-.92-.22-.78Z"/>
      <path class="cls-8" d="M23.29,188.99c-1.31-.91-2.54-1.94-3.67-3.07-.41-.41-1.06.23-.64.64,1.19,1.18,2.48,2.25,3.86,3.21.2.14.5.04.62-.16.13-.23.04-.48-.16-.62Z"/>
      <path class="cls-8" d="M9.88,184.78c-.06-.23-.28-.31-.49-.28l-4.94.78c-.21.03-.33.3-.28.49.06.23.28.31.49.28,1.65-.26,3.29-.52,4.94-.78.21-.03.33-.3.28-.49Z"/>
      <path class="cls-8" d="M9.79,179.88c-1.45-.21-2.87-.58-4.24-1.11-.17-.07-.37.07-.41.23-.05.19.06.35.23.41,1.36.53,2.79.91,4.24,1.11.18.03.36-.04.41-.23.04-.16-.05-.39-.23-.41Z"/>
      <path class="cls-3" d="M16.3,179.64c0,.7-.56,1.26-1.26,1.26s-1.26-.56-1.26-1.26.56-1.26,1.26-1.26,1.26.56,1.26,1.26Z"/>
      <path class="cls-3" d="M12.13,185.27c0,.81-.66,1.47-1.47,1.47s-1.47-.66-1.47-1.47.66-1.47,1.47-1.47,1.47.66,1.47,1.47Z"/>
      <path class="cls-3" d="M15.06,187.92c0,.45-.36.81-.81.81s-.81-.36-.81-.81.36-.81.81-.81.81.36.81.81Z"/>
      <circle class="cls-3" cx="14.6" cy="183.76" r=".81"/>
      <circle class="cls-3" cx="18.5" cy="181.97" r="1.13"/>
      <path class="cls-3" d="M18.01,186.43c0,.35-.28.64-.64.64s-.64-.28-.64-.64.28-.64.64-.64.64.28.64.64Z"/>
      <path class="cls-3" d="M11.85,180.73c0,.55-.45,1-1,1s-1-.45-1-1,.45-1,1-1,1,.45,1,1Z"/>
    </g>
    <g>
      <circle class="cls-8" cx="405.4" cy="273.82" r="6.88"/>
      <path class="cls-8" d="M404.77,264.39c0,.98-.79,1.77-1.77,1.77s-1.77-.79-1.77-1.77.79-1.77,1.77-1.77,1.77.79,1.77,1.77Z"/>
      <path class="cls-8" d="M413.24,266.16c0,.69-.56,1.25-1.25,1.25s-1.25-.56-1.25-1.25.56-1.25,1.25-1.25,1.25.56,1.25,1.25Z"/>
      <circle class="cls-8" cx="396" cy="276.02" r="1.75"/>
      <path class="cls-8" d="M397.29,269.65c0,.61-.49,1.11-1.11,1.11s-1.11-.49-1.11-1.11.49-1.1,1.11-1.1,1.11.49,1.11,1.1Z"/>
      <circle class="cls-8" cx="414.77" cy="273.25" r="1.01"/>
      <circle class="cls-8" cx="399.76" cy="281.37" r="1.29"/>
      <path class="cls-8" d="M409.09,283.11c0,.61-.49,1.11-1.11,1.11s-1.11-.49-1.11-1.11.49-1.11,1.11-1.11,1.11.49,1.11,1.11Z"/>
      <path class="cls-8" d="M415.49,279.88c0,.82-.67,1.49-1.49,1.49s-1.49-.67-1.49-1.49.67-1.49,1.49-1.49,1.49.67,1.49,1.49Z"/>
      <path class="cls-8" d="M411.97,266.28c-.14-.14-.43-.17-.56,0-1.12,1.37-2.09,2.85-2.9,4.42-.23.46.45.86.69.4.77-1.51,1.7-2.95,2.77-4.26.14-.17.16-.4,0-.56Z"/>
      <path class="cls-8" d="M404.93,271.72c-.36-2.22-.83-4.42-1.39-6.6-.13-.51-.92-.29-.79.22.56,2.18,1.03,4.38,1.39,6.6.04.22.31.34.5.29.23-.06.32-.28.29-.5Z"/>
      <path class="cls-8" d="M403.2,276.83c-.2-.12-.41-.03-.54.14l-3.32,4.39c-.13.17-.03.44.14.54.2.12.41.03.54-.14l3.32-4.39c.13-.17.03-.44-.14-.54Z"/>
      <path class="cls-8" d="M408.42,283.09c-.32-1.06-.57-2.14-.73-3.23-.03-.21-.29-.32-.47-.27-.22.06-.3.27-.27.47.16,1.09.41,2.17.73,3.23.14.47.89.27.74-.2Z"/>
      <path class="cls-8" d="M414.86,272.81c-1.66.44-3.32.89-4.98,1.33-.5.13-.29.92.22.78,1.66-.44,3.32-.89,4.98-1.33.5-.13.29-.92-.22-.78Z"/>
      <path class="cls-8" d="M414.45,279.49c-1.31-.91-2.54-1.94-3.67-3.07-.41-.41-1.06.23-.64.64,1.19,1.18,2.48,2.25,3.86,3.21.2.14.5.04.62-.16.13-.23.04-.48-.16-.62Z"/>
      <path class="cls-8" d="M401.03,275.28c-.06-.23-.28-.31-.49-.28l-4.94.78c-.21.03-.33.3-.28.49.06.23.28.31.49.28,1.65-.26,3.29-.52,4.94-.78.21-.03.33-.3.28-.49Z"/>
      <path class="cls-8" d="M400.94,270.39c-1.45-.21-2.87-.58-4.24-1.11-.17-.07-.37.07-.41.23-.05.19.06.34.23.41,1.36.53,2.79.91,4.24,1.11.18.03.36-.04.41-.23.04-.16-.05-.39-.23-.41Z"/>
      <path class="cls-3" d="M407.45,270.15c0,.7-.56,1.26-1.26,1.26s-1.26-.56-1.26-1.26.56-1.26,1.26-1.26,1.26.56,1.26,1.26Z"/>
      <path class="cls-3" d="M403.28,275.77c0,.81-.66,1.47-1.47,1.47s-1.47-.66-1.47-1.47.66-1.47,1.47-1.47,1.47.66,1.47,1.47Z"/>
      <path class="cls-3" d="M406.21,278.43c0,.45-.36.81-.81.81s-.81-.36-.81-.81.36-.81.81-.81.81.36.81.81Z"/>
      <circle class="cls-3" cx="405.75" cy="274.26" r=".81"/>
      <circle class="cls-3" cx="409.66" cy="272.48" r="1.13"/>
      <path class="cls-3" d="M409.17,276.93c0,.35-.28.64-.64.64s-.64-.28-.64-.64.28-.64.64-.64.64.28.64.64Z"/>
      <path class="cls-3" d="M403,271.23c0,.55-.45,1-1,1s-1-.45-1-1,.45-1,1-1,1,.45,1,1Z"/>
    </g>
    <g>
      <path class="cls-8" d="M197.44,369.67c2.22,5.63-.8,12.1-6.73,14.44-5.94,2.34-12.55-.33-14.77-5.97-2.22-5.63.8-12.1,6.73-14.44,5.94-2.34,12.55.33,14.77,5.97Z"/>
      <path class="cls-8" d="M180.19,360.31c.57,1.45-.2,3.11-1.73,3.71-1.53.6-3.23-.09-3.8-1.53-.57-1.45.2-3.11,1.73-3.71,1.53-.6,3.23.09,3.8,1.53Z"/>
      <path class="cls-8" d="M194.47,357.71c.4,1.03-.14,2.2-1.23,2.63-1.08.43-2.28-.06-2.69-1.09-.4-1.03.14-2.2,1.23-2.63,1.08-.43,2.29.06,2.69,1.09Z"/>
      <path class="cls-8" d="M176.02,381.87c.57,1.44-.2,3.08-1.72,3.68-1.51.6-3.2-.09-3.77-1.52-.57-1.44.2-3.09,1.72-3.68,1.51-.6,3.2.09,3.77,1.52Z"/>
      <path class="cls-8" d="M171.58,372.71c.36.91-.13,1.94-1.08,2.32-.95.38-2.02-.05-2.37-.96-.36-.91.13-1.94,1.08-2.32.95-.38,2.02.05,2.37.96Z"/>
      <path class="cls-8" d="M202.58,366.67c.33.83-.12,1.78-.99,2.13-.87.34-1.85-.05-2.17-.88-.33-.83.12-1.78.99-2.13.87-.34,1.85.05,2.17.88Z"/>
      <path class="cls-8" d="M184.3,387.78c.42,1.06-.15,2.27-1.26,2.71-1.11.44-2.35-.06-2.77-1.12-.42-1.06.15-2.27,1.26-2.71,1.11-.44,2.35.06,2.77,1.12Z"/>
      <path class="cls-8" d="M197.89,385.4c.36.91-.13,1.94-1.08,2.32-.95.38-2.02-.05-2.37-.96-.36-.91.13-1.94,1.08-2.32.95-.38,2.02.05,2.37.96Z"/>
      <path class="cls-8" d="M206,376.68c.48,1.22-.17,2.62-1.46,3.13-1.29.51-2.72-.07-3.2-1.29-.48-1.22.17-2.62,1.46-3.13,1.29-.51,2.72.07,3.2,1.29Z"/>
      <path class="cls-8" d="M192.56,358.66c-.3-.12-.76.01-.88.35-.95,2.72-1.61,5.51-1.94,8.34-.1.82,1.21.99,1.31.17.32-2.72.93-5.41,1.84-8.02.12-.33.02-.69-.33-.83Z"/>
      <path class="cls-8" d="M184.72,371.07c-1.86-3.07-3.88-6.05-6.03-8.93-.5-.67-1.61.13-1.1.81,2.15,2.88,4.16,5.86,6.03,8.93.18.3.68.31.95.11.32-.24.34-.62.15-.92Z"/>
      <path class="cls-8" d="M185.01,379.72c-.38-.05-.66.21-.76.54l-2.63,8.56c-.1.33.22.67.54.71.38.05.66-.21.76-.54l2.63-8.56c.1-.33-.22-.67-.54-.71Z"/>
      <path class="cls-8" d="M196.83,385.79c-1.12-1.37-2.13-2.82-3.03-4.34-.17-.29-.64-.29-.9-.11-.31.23-.31.58-.14.87.89,1.52,1.9,2.97,3.03,4.34.5.61,1.54-.14,1.04-.76Z"/>
      <path class="cls-8" d="M200.89,366.57c-2.34,1.68-4.67,3.36-7.01,5.04-.71.51.08,1.54.79,1.03,2.34-1.68,4.67-3.36,7.01-5.04.71-.51-.08-1.54-.79-1.03Z"/>
      <path class="cls-8" d="M204.14,376.75c-2.58-.55-5.1-1.32-7.53-2.29-.89-.35-1.52.99-.63,1.35,2.55,1.02,5.2,1.81,7.9,2.39.4.08.81-.26.87-.62.07-.42-.22-.74-.62-.82Z"/>
      <path class="cls-8" d="M180.72,378.75c-.23-.3-.61-.29-.93-.11-2.42,1.4-4.84,2.8-7.26,4.2-.31.18-.34.65-.15.9.23.3.61.29.93.11,2.42-1.4,4.84-2.8,7.26-4.2.31-.18.34-.65.15-.9Z"/>
      <path class="cls-8" d="M177.71,371.55c-2.39.59-4.83.91-7.27.96-.3,0-.53.33-.51.6.03.31.3.47.6.47,2.44-.05,4.88-.37,7.27-.96.29-.07.53-.29.51-.6-.02-.26-.31-.54-.6-.47Z"/>
      <path class="cls-3" d="M187.76,367.18c.41,1.03-.15,2.22-1.23,2.65-1.09.43-2.3-.06-2.71-1.09-.41-1.03.15-2.22,1.23-2.65,1.09-.43,2.3.06,2.71,1.09Z"/>
      <path class="cls-3" d="M184.52,378.1c.47,1.21-.17,2.59-1.44,3.09-1.27.5-2.68-.07-3.16-1.28-.47-1.21.17-2.59,1.44-3.09,1.27-.5,2.68.07,3.16,1.28Z"/>
      <path class="cls-3" d="M190.65,380.23c.26.67-.09,1.43-.8,1.71s-1.48-.04-1.75-.71c-.26-.67.09-1.43.8-1.71.7-.28,1.48.04,1.75.71Z"/>
      <path class="cls-3" d="M188.78,373.84c.26.67-.09,1.43-.8,1.71s-1.48-.04-1.75-.71c-.26-.67.09-1.43.8-1.71.7-.28,1.48.04,1.75.71Z"/>
      <path class="cls-3" d="M194.32,368.59c.36.92-.13,1.98-1.1,2.37-.97.38-2.06-.05-2.42-.98s.13-1.98,1.1-2.37c.97-.38,2.06.05,2.42.98Z"/>
      <path class="cls-3" d="M194.39,376.19c.21.52-.07,1.12-.62,1.33-.55.22-1.16-.03-1.37-.55-.21-.52.07-1.12.62-1.33s1.16.03,1.37.55Z"/>
      <path class="cls-3" d="M181.43,371.54c.32.82-.12,1.77-.98,2.11-.87.34-1.83-.05-2.15-.87-.32-.82.12-1.77.98-2.11.87-.34,1.83.05,2.16.87Z"/>
    </g>
  </g>
  <path class="cls-11" d="M90.53,253.94c4.87-.66,9.97-.16,14.85-1.08,1.3-.25,2.62-.55,3.92-.93-.4-7.97-1.39-15.91-2.97-23.74-1.6-7.96-2.28-14.88-3-22.88-1.2-13.29-2.94-26.89-2.68-40.27.16-7.96,1.11-15.79,1.75-23.72.47-5.72-.66-10.93-1.72-16.2-.32-.18-.65-.35-.98-.52-6.7-3.47-12.67-7.3-20.27-7.29,0,0-18.58.04-18.58.04-9.46.02-8.42,4.03-8.59,12.35-.24,11.7-5.2,26.13-7.54,37.6-.98,4.81,3.13,8.34,1.62,13.4-2.07,6.95-4.89,13.75-7.18,20.64-4.72,14.17-9.07,28.44-13.61,42.63-.65,2.03,32.65,10.18,35.75,10.74,1.84.33,13.14,2.03,14.77,1.2,1.6-.81,2.65-20.18,5.11-26.52,1.29,8.65,2.57,17.29,3.86,25.94,1.78-.74,3.61-1.16,5.49-1.41Z"/>
  <path class="cls-27" d="M79.45,123.93c3.34,35.38,4.02,71.01,2.02,106.49"/>
  <path class="cls-11" d="M82.73,98.24c-.03-.11.17-.02.18.09.09.9-.77,1.64-1.66,1.76-.89.12-1.79-.2-2.65-.52"/>
  <path class="cls-15" d="M84.49,139.5c1.55-4.33,2.18-9.48,3.51-13.9.03-.12.09-.21.15-.29-.23-2.22-.21-4.45-.28-6.68-.79-.37-1.61-.71-2.14-1.32-.61-.7-.7-1.7-.76-2.63-.21-3.01-.24-5.91.38-8.88.11-.52.24-1.05.5-1.51.31-.54.79-.97,1.21-1.43,1.02-1.15,1.65-2.6,2.09-4.09,1.01-3.42,1.02-7.3-.71-10.51-1.39-2.56-4.53-5.37-7.56-4.32-1.14.4-2.01,1.03-2.95,1.73-.98.73-2.32,1.11-3.46,1.58-.81.34-1.64.69-2.24,1.32-1.2,1.24-1.2,3.17-1.14,4.9.13,3.16-.22,6.49.42,9.6.41,1.97,1.07,4.89.84,7.25-.08.77-.25,1.48-.55,2.08-.8,1.56-1.68,3.21-3.22,4.05-1.03.57-1.39.04-2.31.56,2.26,7.42,3.65,10.45,8.3,20.77.38.85,5.52,13.42,6.45,13.45.93.04,2.89-10.94,3.47-11.72Z"/>
  <path class="cls-17" d="M82.48,147.62c-.13-.25-.16-.54.02-.86,3.53-6.22,4.1-13.6,4.84-20.62-2.2,1.81-4.48,3.72-7.28,4.02-3.72.4-8.62-1.82-10.98-4.97,2.36,3.15,2.47,9.57,4.41,13.09,2.17,3.93,4.83,7.88,8.29,10.84.22-.5.45-1,.7-1.49Z"/>
  <path class="cls-19" d="M67.89,100.87c.08.03.17.06.25.09,1.11.41,2.18.94,3.18,1.59.15-2.64.25-5.28.47-7.92.17-2.03-.45-4.19,1.69-5.36.99-.55,2.15-.69,3.28-.78,2.08-.16,4.18-.19,6.27-.07,2.52.14,5.21.44,7.43-.75,1.15-.62,2.14-1.76,2.1-3.06-.02-.72-.35-1.41-.85-1.92-1.48-1.53-3.94-1.36-6.05-1.09-3.45.46-6.9.91-10.35,1.37-1.37.18-2.76.37-4.01.96-3.47,1.64-2.7,3.64-3.8,6.82-.47,1.34-1.96,4.14-2.19,5.54-.35,2.16.55,3.86,2.58,4.59Z"/>
  <path class="cls-28" d="M102.65,195.67c-.7-17.72-1.66-35.44-2.87-53.13"/>
  <path class="cls-19" d="M86.05,104.16c.16-.23.36-.43.51-.68-.59.43-1.19.87-1.87,1.15-.64.27-1.24.39-1.94.41-1.23.04-2.45-.19-3.65-.5,1.97,1.35,4.08,2.5,6.27,3.44.07-.81.18-1.62.29-2.43.05-.39.11-.78.26-1.14.04-.09.09-.18.14-.26Z"/>
  <path class="cls-11" d="M79.6,95.64c.25-.15.47-.29.68-.39,1.6-.84,3.44-1.49,5.19-1.04.61.16,1.18.44,1.75.73.65.33,1.32.67,1.8,1.22,1.66,1.9-.56,6-1.76,7.64-1.26,1.74-3.18,1.71-5.18,1.92-1.58.16-3.34-.22-4.88-.57-.64-.15-1.41-.35-1.93-.77-.54-.44-.69-.79-1.44-.98.9-1.92,1.51-3.97,1.16-6.1,1.24.56,3.22-.8,4.61-1.65Z"/>
  <path class="cls-28" d="M76.58,104.55c-1.28-.64-2.56-1.11-3.92-1.57-1.37-.47-2.87-1.03-3.58-2.3"/>
  <path class="cls-11" d="M86.5,75.16c-.15-.48-.34-.98-.74-1.28-.51-.38-1.21-.33-1.83-.25-5.78.71-11.34,2-16.33,5.15-.24.15-.48.31-.61.56-.1.19-.12.41-.13.62-.27,3.72-.12,7.47.44,11.16,3.42-1.93,6.92-3.7,10.5-5.31.74-.33,10.11-3.83,10.08-4.17-.24-2.2-.68-4.38-1.37-6.49Z"/>
  <path class="cls-28" d="M77.09,98.23c-2.26-.79-6.06-2.98-8.44-2.76"/>
  <path class="cls-15" d="M69.52,94.9c-1.74.15-3.27,1.74-3,3.55.26,1.77,1.81,3.25,3.68,3.09,1.74-.15,3.27-1.74,3-3.55-.26-1.77-1.81-3.25-3.68-3.09Z"/>
  <path class="cls-19" d="M70.6,96.78c-.42-.21-.94-.01-1.23.33-.34.39-.46.97-.31,1.48.15.51.58.94,1.09,1.11"/>
  <path class="cls-10" d="M69.87,122.83c2.13,7.37,5.89,14.22,9.26,21.07.62,1.26,1.24,2.53,1.69,3.86.72,2.11,1.04,4.37.92,6.6-3.15-3.78-6.39-7.49-9.72-11.12-.99-1.08-4.19-3.51-4.26-4.83-.04-.83,1.17-2.53,1.51-3.33.44-1.05.85-2.11,1.24-3.18-2.59.22-5.18.43-7.77.65.05-1.58.1-3.17.15-4.75.13-4.16.26-9.12,3.91-11.84,1.18-.88,2.55-1.48,3.95-1.93-.82.95-1.23,3.1-1.31,4.33-.1,1.49,0,3.02.42,4.45Z"/>
  <path class="cls-10" d="M86.54,131.4l4.05.8c.19-3.05.16-6.14-.43-9.13-.38-1.96-.97-3.96-2.2-5.56-.82-1.06-1.86-1.89-2.97-2.6-.04.39,0,.92,0,1.49.08,3.52-.13,7.05-.62,10.54-.66,4.75-1.82,9.42-2.49,14.17-.33,2.34-.54,4.7-.5,7.06.02,1.22.11,2.43.29,3.64.11.74.04,1.27,0,1.86l.04,1.11c3.08-5.34,5.27-11.19,7.89-16.77.12-.25.24-.52.24-.8,0-.36-.19-.69-.38-.99-.98-1.61-1.95-3.21-2.93-4.82Z"/>
  <path class="cls-26" d="M40.67,210.17c5.48,3.63,12.44,4.97,18.88,3.63"/>
  <path class="cls-10" d="M89.99,221.77c0,1.09-.89,1.98-1.98,1.98s-1.98-.89-1.98-1.98.89-1.98,1.98-1.98,1.98.89,1.98,1.98Z"/>
  <path class="cls-10" d="M89.3,202.84c0,.9-.73,1.64-1.64,1.64s-1.64-.73-1.64-1.64.73-1.64,1.64-1.64,1.64.73,1.64,1.64Z"/>
  <g>
    <g>
      <path class="cls-1" d="M173.62,175.62h38.43v117.61c0,10.27-8.34,18.61-18.61,18.61h-1.22c-10.27,0-18.61-8.34-18.61-18.61v-117.61h0Z"/>
      <path class="cls-17" d="M177.36,237.47v55.06c0,8.55,6.93,15.48,15.48,15.48s15.48-6.93,15.48-15.48v-55.06h-30.96Z"/>
      <g class="cls-33">
        <rect class="cls-20" x="169.62" y="173.23" width="23.09" height="151.09"/>
      </g>
      <rect class="cls-9" x="179.05" y="197.1" width="26.53" height="71.15"/>
      <rect class="cls-13" x="197.08" y="207.71" width="6.27" height="56.29" rx="3.03" ry="3.03"/>
      <path class="cls-13" d="M195.01,264.01h-14.17v-14.17h14.17v14.17ZM182.41,262.44h11.04v-11.04h-11.04v11.04Z"/>
      <path class="cls-13" d="M195.01,242.16h-14.17v-14.17h14.17v14.17ZM182.41,240.6h11.04v-11.04h-11.04v11.04Z"/>
      <rect class="cls-13" x="168.86" y="153.4" width="47.97" height="29.51"/>
      <g>
        <g class="cls-32">
          <rect class="cls-12" x="173.62" y="155.89" width="2.77" height="24.05"/>
        </g>
        <g class="cls-32">
          <rect class="cls-12" x="179.57" y="155.89" width="2.77" height="24.05"/>
        </g>
        <g class="cls-32">
          <rect class="cls-12" x="185.51" y="155.89" width="2.77" height="24.05"/>
        </g>
        <g class="cls-32">
          <rect class="cls-12" x="191.46" y="155.89" width="2.77" height="24.05"/>
        </g>
        <g class="cls-32">
          <rect class="cls-12" x="197.4" y="155.89" width="2.77" height="24.05"/>
        </g>
        <g class="cls-32">
          <rect class="cls-12" x="203.35" y="155.89" width="2.77" height="24.05"/>
        </g>
        <g class="cls-32">
          <rect class="cls-12" x="209.29" y="155.89" width="2.77" height="24.05"/>
        </g>
      </g>
    </g>
    <g>
      <path class="cls-1" d="M227.61,175.62h38.43v117.61c0,10.27-8.34,18.61-18.61,18.61h-1.22c-10.27,0-18.61-8.34-18.61-18.61v-117.61h0Z"/>
      <path class="cls-17" d="M231.35,237.47v55.06c0,8.55,6.93,15.48,15.48,15.48s15.48-6.93,15.48-15.48v-55.06h-30.96Z"/>
      <rect class="cls-9" x="233.04" y="197.1" width="26.53" height="71.15"/>
      <rect class="cls-13" x="251.07" y="207.71" width="6.27" height="56.29" rx="3.03" ry="3.03"/>
      <path class="cls-13" d="M249,264.01h-14.17v-14.17h14.17v14.17ZM236.39,262.44h11.04v-11.04h-11.04v11.04Z"/>
      <path class="cls-13" d="M249,242.16h-14.17v-14.17h14.17v14.17ZM236.39,240.6h11.04v-11.04h-11.04v11.04Z"/>
    </g>
    <g class="cls-30">
      <rect class="cls-20" x="222.61" y="173.23" width="23.09" height="151.09"/>
    </g>
    <g>
      <path class="cls-1" d="M281.6,175.62h38.43v117.61c0,10.27-8.34,18.61-18.61,18.61h-1.22c-10.27,0-18.61-8.34-18.61-18.61v-117.61h0Z"/>
      <rect class="cls-13" x="276.83" y="153.4" width="47.97" height="29.51"/>
      <path class="cls-17" d="M285.33,237.47v55.06c0,8.55,6.93,15.48,15.48,15.48s15.48-6.93,15.48-15.48v-55.06h-30.96Z"/>
      <g>
        <g class="cls-32">
          <rect class="cls-12" x="281.6" y="155.89" width="2.77" height="24.05"/>
        </g>
        <g class="cls-32">
          <rect class="cls-12" x="287.54" y="155.89" width="2.77" height="24.05"/>
        </g>
        <g class="cls-32">
          <rect class="cls-12" x="293.49" y="155.89" width="2.77" height="24.05"/>
        </g>
        <g class="cls-32">
          <rect class="cls-12" x="299.43" y="155.89" width="2.77" height="24.05"/>
        </g>
        <g class="cls-32">
          <rect class="cls-12" x="305.37" y="155.89" width="2.77" height="24.05"/>
        </g>
        <g class="cls-32">
          <rect class="cls-12" x="311.32" y="155.89" width="2.77" height="24.05"/>
        </g>
        <g class="cls-32">
          <rect class="cls-12" x="317.26" y="155.89" width="2.77" height="24.05"/>
        </g>
      </g>
      <rect class="cls-9" x="287.03" y="197.1" width="26.53" height="71.15"/>
      <rect class="cls-13" x="305.05" y="207.71" width="6.27" height="56.29" rx="3.03" ry="3.03"/>
      <path class="cls-13" d="M302.98,264.01h-14.17v-14.17h14.17v14.17ZM290.38,262.44h11.04v-11.04h-11.04v11.04Z"/>
      <path class="cls-13" d="M302.98,242.16h-14.17v-14.17h14.17v14.17ZM290.38,240.6h11.04v-11.04h-11.04v11.04Z"/>
    </g>
    <path class="cls-4" d="M300,227.88c-1.65,3.44-3.3,6.89-4.96,10.33-.84-1.16-1.71-2.3-2.64-3.39-.84-.98-2.24.44-1.41,1.41,1.2,1.41,2.32,2.89,3.36,4.43.39.57,1.38.73,1.73,0,1.88-3.92,3.77-7.85,5.65-11.77.55-1.15-1.17-2.17-1.73-1.01Z"/>
    <path class="cls-17" d="M246.17,263.43c-1.12-1.34-2.18-2.72-3.2-4.14.71-.93,1.42-1.85,2.13-2.78.33-.43.07-1.12-.36-1.37-.52-.3-1.04-.07-1.37.36l-1.59,2.07c-.87-1.29-1.71-2.6-2.49-3.94-.65-1.11-2.38-.11-1.73,1.01.92,1.57,1.9,3.1,2.93,4.6-1.03,1.34-2.06,2.68-3.09,4.02-.33.43-.07,1.12.36,1.37.52.3,1.04.07,1.37-.36.86-1.11,1.71-2.23,2.57-3.34.98,1.33,1.99,2.64,3.05,3.91.35.41,1.06.36,1.41,0,.41-.41.35-1,0-1.41Z"/>
    <g class="cls-29">
      <rect class="cls-20" x="276.6" y="182.72" width="23.09" height="142.6"/>
    </g>
    <rect class="cls-13" x="222.85" y="153.4" width="47.97" height="29.51"/>
    <g>
      <g class="cls-32">
        <rect class="cls-12" x="227.61" y="155.89" width="2.77" height="24.05"/>
      </g>
      <g class="cls-32">
        <rect class="cls-12" x="233.56" y="155.89" width="2.77" height="24.05"/>
      </g>
      <g class="cls-32">
        <rect class="cls-12" x="239.5" y="155.89" width="2.77" height="24.05"/>
      </g>
      <g class="cls-32">
        <rect class="cls-12" x="245.44" y="155.89" width="2.77" height="24.05"/>
      </g>
      <g class="cls-32">
        <rect class="cls-12" x="251.39" y="155.89" width="2.77" height="24.05"/>
      </g>
      <g class="cls-32">
        <rect class="cls-12" x="257.33" y="155.89" width="2.77" height="24.05"/>
      </g>
      <g class="cls-32">
        <rect class="cls-12" x="263.28" y="155.89" width="2.77" height="24.05"/>
      </g>
    </g>
  </g>
  <g>
    <path class="cls-1" d="M126.01,311.32h0c-16.17,0-29.27-13.1-29.27-29.27V79.41h58.54v202.64c0,16.17-13.1,29.27-29.27,29.27Z"/>
    <path class="cls-6" d="M126.01,298.59h0c-12.3,0-22.27-9.97-22.27-22.27V107.97h44.55v168.35c0,12.3-9.97,22.27-22.27,22.27Z"/>
    <rect class="cls-17" x="116.89" y="127.65" width="18.25" height="91.17"/>
    <rect class="cls-11" x="116.89" y="239.54" width="18.25" height="26.72"/>
  </g>
  <path class="cls-15" d="M67.91,195.18c12.16,1.26,35.43,2.35,35.92-15.38.08-3.04.03-6.17-.6-9.14-1.7,1.31-2.56,3.42-3.12,5.49-.56,2.07-.91,4.23-1.92,6.12-2.03,3.83-8.06,2.06-11.19,1.11-11.31-3.42-21.98-8.64-32.5-14.02-1.5-.77-3.04-1.55-4.72-1.7-1.68-.15-3.54.51-4.33,2-1.38,2.6-.56,7.04.39,9.63,1.24,3.39,3.51,6.35,6.4,8.49,4.52,3.35,10.03,6.82,15.67,7.4Z"/>
  <path class="cls-11" d="M65.85,126.33c-1.65-4.41-6-9.41-11.3-8.22-4.92,1.1-8.39,7.44-10.17,11.58-4.45,10.34-6.79,22.01-6.06,33.25.3,4.54,1.06,9.1,2.89,13.26,4.31,9.8,13.88,16.13,23.29,21.25,3.93-6.73,8.29-13.21,13.03-19.38.7-.91-9.08-7.24-9.83-8.21-2.97-3.81-4.1-9.21-3.75-13.95.33-4.46,1.67-8.78,2.67-13.15,1.35-5.94,1.34-10.77-.78-16.42Z"/>
  <path class="cls-15" d="M151.21,173.24c-.61,1.07-1.19,2.2-1.25,3.43-.07,1.23.51,2.57,1.65,3.04.98.4,2.11.08,3.03-.45,2.76-1.6,4.18-5.4,3.13-8.43-1.92-5.52-4.98-.36-6.56,2.41Z"/>
  <g>
    <g>
      <path class="cls-11" d="M306.22,126.21c2.92.12,5.36,2.52,6.36,5.27,1,2.75,5.63,6.93,5.29,9.83-1.53,12.75-11.01,23.91-18.02,34.67-1.25,1.92-2.61,3.82-4.46,5.17-8.96,6.51-14.64-4.29-14.07-12.21.25-3.48,1.53-6.81,2.94-10,4.41-9.96,8.88-20.81,15.39-29.62,1.35-1.83,4.4-2.44,6.56-3.11Z"/>
      <path class="cls-11" d="M296.66,147.96c5.65,3.04,11.31,6.06,16.91,9.18,3.08-10.16,5.77-20.4,6.89-30.94.28-2.63.71-7.26-1.41-9.35-.1-.1,1.75-1.5,1.64-1.58-2.43-1.85-8.46,1.95-10.81,3.49-9.24,6.06-14.32,16.56-17.69,26.78,1.49.81,2.97,1.63,4.46,2.43Z"/>
      <path class="cls-15" d="M293.65,374.08c-.24-.72-.35-1.63-.38-2.71-.11-4.27.02-8.64.05-12.9.02-3.07.58-7.06,3.15-8.9,1.04-.74,2.25-.96,3.43-1.02,1.71-.08,3.41.18,5.01.76.74.27,1.52.67,1.84,1.49.21.55,1.55-.04,1.51.59-.46,6.89-3.44,15.01-6.07,21.38-.32.78-.69,1.59-1.29,2.11-1.71,1.47-6.41,1.67-7.24-.8Z"/>
      <path class="cls-25" d="M293.4,370.51c.12,1.71-3.06,3.72-4.62,4.88-1.86,1.38-3.8,2.66-5.8,3.83-1.6.93-3.25,1.79-4.93,2.57-.68.32-1.38.63-1.91,1.16-.53.53-.85,1.34-.59,2.04.25.68.95,1.08,1.62,1.34,3.1,1.19,6.57.64,9.79-.17,3.22-.81,6.46-1.87,9.77-1.66.7.04,1.42.15,2.11.01,2.42-.46,2.23-4.94,2.57-6.84.3-1.62.37-2.72.7-5.61"/>
      <path class="cls-15" d="M356.01,373.23c-.3-.66-.48-1.49-.59-2.48-.44-3.91-.64-7.9-.94-11.8-.21-2.81.04-6.46,2.51-8.14.99-.68,2.21-.88,3.39-.93,1.72-.07,3.46.16,5.12.69.77.24,1.59.61,1.97,1.36.26.5.28,1.1.28,1.67.06,6.3-1.04,12.6-3.21,18.43-.27.72-.57,1.46-1.14,1.93-1.62,1.34-6.35,1.53-7.39-.73Z"/>
      <path class="cls-14" d="M347.24,205.95c-.26-2.74-1.02-5.01-2.05-7.08-1.73-3.49-4.23-6.38-6.38-9.86-3.25-5.25-8.2-9.29-14.13-10.14-14.18-2.02-17.27,26.19-18.54,36.2-4.34,34.26-6.39,68.51-9.91,102.77-.91,8.85-4.84,46.82-5.61,46.72,5.58.68,14.1,2.71,19.78,2.22,8.16-19.76,14.43-39.87,17.46-60.89,1-6.95,2.18-13.66,3.55-20.3,1.97-9.48,4.36-18.8,7.26-28.41,4.97-16.42,10.19-34.29,8.56-51.24Z"/>
      <path class="cls-25" d="M355.42,370.75c-.99,2.13-2.36,2.88-4.05,4.4-1.49,1.34-3.09,2.56-4.79,3.63-.5.32-1.02.63-1.54.92-2.02,1.15-4.23,2.16-5.65,4.01-.49.64-.88,1.49-.56,2.23.18.4.54.69.92.9,1.84,1.02,4.11.49,6.14-.06,3.38-.92,6.64-2.21,10.06-2.97,2.75-.61,6.51.19,7.82-2.94.43-1.02.53-2.14.62-3.24.16-1.88.18-3.85.57-6.8"/>
      <path class="cls-14" d="M378.12,215.88c-.83-8.09-1.54-16.17-5.83-23.32-1.46-2.44-3.41-4.56-5.34-6.66-1.48-1.61-3.01-3.26-4.94-4.28-2.86-1.51-6.3-1.5-9.48-.87-5.17,1.02-6.05.37-9.8,4.08-9.65,9.56-8.02,35.33-6.41,47.3,2.09,15.59,5.19,31.04,8.74,46.36,3,12.94,3.06,25.74,3.58,38.95.63,16.22,2.37,32.2,4.42,48.26.03.22.07.47.26.59.12.07.27.08.41.08,2.05.02,4.11.03,6.16.05,3.68.03,7.36.06,11.04.09.29,0,.59,0,.84-.15.41-.24.51-.77.57-1.24,1.36-9.96,3.67-19.51,4.14-29.63.47-10.24.04-20.48.04-30.72-.15-17.4.08-35.31,2.11-52.61,1.42-12.09.73-24.18-.52-36.26Z"/>
      <path class="cls-27" d="M339.95,254.86c-.91-7.96-1.16-15.99-.73-23.99"/>
      <path class="cls-11" d="M380.35,159.42c-.35-9.15-1.46-18.26-3.66-27.11-.02-.05-.03-.09-.05-.14-.97-1.95-2-3.92-3.4-5.6-2.43-2.91,12.62-.18,9.13-1.66-4.97-2.1-20.45-8.14-22.49-8.68-2.38-.63-4.79-1.19-7.07-2.14-3.06-1.27-6.71-1.66-9.98-1.99-4.58-.46-9.25-.63-13.8.18-3.2.56-6.37,1.28-9.49,2.18-1.44.41-3.07.75-4.44,1.34-1.19.51-2,1.87-2.45,3.02-.9,2.27-.95,4.49-1.46,6.82-.61,2.79,4.13,9.3,3.53,12.1-7.13,33.67-9.79,66.49-15.08,100.99,27.2.32,54.41.65,81.61.97-4.96-26.28.08-53.68-.92-80.27Z"/>
      <path class="cls-15" d="M341.09,85.86c-1.22-.51-2.55-.79-3.76-1.32-1.53-.67-2.86-1.74-4.41-2.38-1.62-.67-3.44-.83-5.14-.46-3.1.67-3.45,4.69-3.71,7.28-.28,2.8-.34,5.67.35,8.4.61,2.4,2.19,5.88,4.68,6.76.84.3,1.69.36,2.22,1.2.53.84.51,2.08.61,3.04.14,1.29.81,2.75-.76,3.47-.48.22-1.01.27-1.54.32-.89.08-1.78.17-2.67.25.23.94,1.35,2.1,1.93,2.86.79,1.04,1.65,2.03,2.56,2.97,1,1.03,2.09,2,3.37,2.63,5.59,2.76,13.1-1.54,17.64-4.7.78-.54,1.57-1.13,2.51-1.27-2.05-1.24-3.97-1.7-5.32-3.91-.84-1.38-1.24-2.97-1.57-4.55-.81-3.93-1.2-7.9-1.96-11.84-.59-3.07-1.55-7.13-4.67-8.6-.12-.06-.24-.11-.36-.16Z"/>
      <path class="cls-19" d="M333.63,88.3c-1.47-4.55-6.94-2.31-10.06-4.43-.88-.6-1.45-1.79-1.03-2.77.61-1.42,2.6-1.44,4.13-1.22,7.58,1.08,19.93.35,22.01,10.14.47,2.21,1.5,6.89.37,8.96-1.43,2.63-5.15,2.11-7.42,1.02-4.37-2.08-6.6-7.36-8-11.71Z"/>
      <path class="cls-15" d="M337.18,90.88c-.48-.02-.98.06-1.47.26-.46.18-.83.53-1.14.91-.78.93-1.31,2.21-.82,3.41.06.66.26,1.29.65,1.86,1.61,2.31,5.22,1.95,6.42-.54,1.24-2.56-.96-5.77-3.64-5.89Z"/>
      <path class="cls-19" d="M337.24,93.99c.39-.17.84.14,1.04.52.44.8.13,1.91-.65,2.36"/>
      <path class="cls-19" d="M335.42,103.48c-.44.55-.64,1.25-.97,1.87-.69,1.31-1.96,2.27-2.49,3.65,0-.72-.04-1.44-.11-2.15-.06-.57-.16-1.16-.52-1.6-.19-.23-.66-.37-.42-.68.13-.17,1.29-.12,1.54-.16,1.03-.16,2.05-.47,2.99-.92Z"/>
      <path class="cls-15" d="M398.42,184.31c-.16-.58-.56-1.08-1.02-1.47-1.4-1.18-3.4-1.45-5.2-1.11-.65.12-1.28.31-1.89.55-1.64.63-3.12,1.59-4.63,2.47-.75.44-1.52.87-2.31,1.23-.39.18-.76.3-1.17.41-.41.11-.87.33-1.3.15-.35-.15-.54-.52-.71-.87-.02.49-.03.89-.08,1.27-.08.63-.27,1.16-.79,1.83-.68.88-1.55,1.61-2.54,2.13-3.49,1.81-7.05,2.95-10.86,3.81-.98.22-2.06.51-2.6,1.36-.3.47-.38,1.06-.36,1.62.12,3.02,3.98,6.84,6.95,7.31,3.9.63,8.54-3.47,11.2-5.84,1.64-1.46,3.16-3.09,5.03-4.26,1.42-.88,3-1.47,4.49-2.22,2.34-1.18,4.48-2.77,6.28-4.68.95-1.01,1.87-2.35,1.49-3.69Z"/>
      <path class="cls-11" d="M360.26,127.26c-3.07,5.48-1.5,14.38,2.68,18.88,2.68,2.88,6.52,4.33,10.24,5.62,6.28,2.17,12.56,4.41,19.01,6.01,15.39,3.82,8.12,12.05,3.52,16.04-2.3,1.99-6.74,4.96-9.11,6.53,0,0,1.26,3.41,2.54,6.17,1.36,2.93,2.83,5.8,4.42,8.61,1.11,1.95,16.58-6.84,18.06-7.83,6.96-4.68,13.68-10.51,16.81-18.54.69-1.78,1.19-3.65,1.48-5.55.91-6-.25-12.32-3.82-17.19-3.27-4.47-8.2-7.4-13.1-9.98-12.38-6.52-35.52-17.82-58.03-21.1-2.81-.41,6.66,9.91,5.3,12.34Z"/>
      <path class="cls-11" d="M326.6,78.33c.42-1.42,1.07-2.77,1.9-3.99,7.39,0,17.76,5.32,20,6.62.09,1.02.15,2.04.16,3.06,0,1.09.19,2.75-.26,3.75-.14.32-.36.56-.66.7-.69.32-1.48.25-2.23.14-3.48-.49-6.72-1.78-9.9-3.16-1.83-.79-3.5-1.84-5.27-2.73-1.55-.79-2.98-2.01-4.32-3.11.32-.35.44-.83.57-1.28Z"/>
      <path class="cls-15" d="M342.81,164.4c-.51-2.42-1.99-4.55-3.79-6.24-2.38-2.25-4.33-3.18-6.35-3.44-4.54-.58-10.51,1.77-14.51,3.76-3.24,1.61-6.18,4.35-6.83,7.91-.09.51-.13,1.04.01,1.54.39,1.31,1.92,1.92,3.28,2.04,4.02.35,13.17-2.81,15.48-6.22.3,2.24,2.73,3.68,3.17,5.8.18.87,0,1.79.24,2.65.4,1.45,1.98,2.38,3.49,2.3,1.5-.07,2.87-.98,3.81-2.16,1.7-2.14,2.58-5.25,2.02-7.94Z"/>
      <path class="cls-11" d="M322.71,154.66c-.17-.02-.28-.03-.31-.02-.87.15-4.82-.68-8.08,0-11.39,2.36-22.68,7.58-28.35,19.24-.55,1.14-.97,2.35-1.09,3.61-.51,5.26,3.77,6.74,7.71,7.09,4.29.38,8.46-1.41,12.3-3.35,7.06-3.56,11.79-3,17.5-7.74-.14-6.28-.14-12.56.32-18.82Z"/>
      <path class="cls-23" d="M327.74,153.88c-.33,4.31-.86,8.57.5,13.12"/>
      <path class="cls-11" d="M330.07,159.74c0,1.71-1.39,3.1-3.1,3.1s-3.1-1.39-3.1-3.1,1.39-3.1,3.1-3.1,3.1,1.39,3.1,3.1Z"/>
      <polyline class="cls-27" points="328.24 161.59 326.97 159.74 329.35 158.88"/>
    </g>
    <path class="cls-11" d="M340.56,96.81c-1.28,1.46-2.57,2.92-4.06,4.16-.3.25-.62.48-.95.71.25-.39.47-.8.62-1.25.72-2.1.13-4.59-1.46-6.14-.47-.46-1.01-.83-1.57-1.17,1.17-.66,2.29-1.42,3.36-2.24-.5-.04-1-.09-1.49-.22-.94.67-1.91,1.3-2.93,1.84-1.2-.67-2.45-1.35-3.82-1.48-6.81-.64-6.9,5.25-4.02,9.65,1.49,2.27,4.1,3.95,6.8,3.73.05.02.1.04.16.04,2.05.1,4.13-1.22,5.67-2.43,1.22-.96,2.3-2.07,3.34-3.22.19-.73.4-1.44.67-2.14-.11,0-.23.05-.33.16Z"/>
    <path class="cls-27" d="M322.66,156.08c-5.4,1-10.73,2.4-15.93,4.18,5.89-7.5,10.77-15.79,14.48-24.58"/>
    <path class="cls-27" d="M307.61,180.41c5.31-2.83,10.35-6.14,15.05-9.89"/>
  </g>
  <path class="cls-27" d="M76.07,179.03c-2.62-1.58-5.15-3.31-7.57-5.19-1.67-1.3-3.33-2.71-4.37-4.55-1.33-2.36-1.52-5.17-1.68-7.87-.2-3.46-.41-6.91-.61-10.37"/>
  <path class="cls-27" d="M45.75,183.12c4.96,6.08,11.75,10.64,19.26,12.92"/>
  <g>
    <path class="cls-17" d="M109.91,96.01c0,.74-.24,1.31-.73,1.71-.49.4-1.18.59-2.07.59h-.74v2.66h-1.16v-7.1h2.05c.89,0,1.55.18,1.99.54.44.36.66.9.66,1.6ZM106.37,97.33h.62c.6,0,1.03-.1,1.31-.31.28-.21.42-.53.42-.97,0-.41-.12-.71-.37-.91-.25-.2-.64-.3-1.17-.3h-.81v2.5Z"/>
    <path class="cls-17" d="M114.35,94.75c-.67,0-1.19.24-1.57.71-.38.47-.57,1.13-.57,1.96s.18,1.53.55,1.98c.37.45.9.67,1.6.67.3,0,.59-.03.87-.09.28-.06.58-.14.88-.23v1c-.56.21-1.19.32-1.89.32-1.04,0-1.84-.31-2.39-.94-.56-.63-.84-1.53-.84-2.7,0-.74.14-1.38.41-1.94.27-.55.66-.98,1.17-1.27.51-.29,1.11-.44,1.8-.44.73,0,1.4.15,2.01.46l-.42.97c-.24-.11-.49-.21-.76-.3-.27-.09-.55-.13-.84-.13Z"/>
    <path class="cls-17" d="M118.8,98.12v2.84h-1.16v-7.1h2.01c.92,0,1.6.17,2.04.51.44.34.66.86.66,1.56,0,.88-.46,1.51-1.38,1.89l2.01,3.14h-1.32l-1.7-2.84h-1.15ZM118.8,97.16h.81c.54,0,.93-.1,1.18-.3.24-.2.36-.5.36-.89s-.13-.69-.39-.86-.66-.26-1.19-.26h-.77v2.32Z"/>
    <path class="cls-17" d="M129.04,100.96h-1.16v-6.11h-2.09v-1h5.34v1h-2.09v6.11Z"/>
    <path class="cls-17" d="M136.23,100.96h-4.02v-7.1h4.02v.98h-2.86v1.93h2.68v.97h-2.68v2.23h2.86v.99Z"/>
    <path class="cls-17" d="M141.87,99.03c0,.63-.23,1.13-.69,1.49-.46.36-1.09.54-1.89.54s-1.46-.12-1.97-.37v-1.1c.32.15.67.27,1.03.36.36.09.7.13,1.02.13.46,0,.8-.09,1.02-.26.22-.18.33-.41.33-.7,0-.27-.1-.49-.3-.68-.2-.18-.62-.4-1.24-.66-.65-.26-1.1-.56-1.37-.9-.27-.34-.4-.74-.4-1.21,0-.59.21-1.06.63-1.4.42-.34.99-.51,1.7-.51s1.36.15,2.03.45l-.37.95c-.63-.27-1.2-.4-1.69-.4-.38,0-.66.08-.85.25-.19.16-.29.38-.29.65,0,.18.04.34.12.47.08.13.21.25.38.37.18.12.5.27.96.46.52.22.9.42,1.15.61.24.19.42.4.53.64.11.24.17.52.17.84Z"/>
    <path class="cls-17" d="M145.69,100.96h-1.16v-6.11h-2.09v-1h5.34v1h-2.09v6.11Z"/>
  </g>
  <path class="cls-27" d="M414.47,185.4c8.04-5.44,14.46-13.94,15.58-23.63s-4.94-17.68-13.02-23.82"/>
  <path class="cls-25" d="M85.11,367.15c.46,1.51.84,2.31.42,3.83l7.24.9"/>
  <path class="cls-25" d="M97.45,372.18c2.7.74,5.42,1.49,8.21,1.69,2.79.2,5.69-.18,8.12-1.58"/>
</svg>