<?xml version="1.0" encoding="UTF-8"?>
<svg id="_Слой_1" data-name="Слой 1" xmlns="http://www.w3.org/2000/svg" viewBox="0 0 2977.82 1404">
  <defs>
    <style>
      .cls-1 {
        fill: #2e3552;
      }

      .cls-1, .cls-2, .cls-3, .cls-4, .cls-5, .cls-6, .cls-7, .cls-8, .cls-9, .cls-10, .cls-11, .cls-12, .cls-13, .cls-14, .cls-15, .cls-16, .cls-17, .cls-18, .cls-19, .cls-20, .cls-21, .cls-22, .cls-23, .cls-24, .cls-25, .cls-26, .cls-27, .cls-28, .cls-29, .cls-30, .cls-31, .cls-32, .cls-33, .cls-34, .cls-35, .cls-36, .cls-37, .cls-38 {
        stroke-width: 0px;
      }

      .cls-2 {
        fill: #bdd7fd;
      }

      .cls-3 {
        fill: #ed985f;
      }

      .cls-4 {
        fill: #ff9e55;
      }

      .cls-39 {
        opacity: .5;
      }

      .cls-5 {
        fill: #7fa8e5;
      }

      .cls-6 {
        fill: #163560;
      }

      .cls-7 {
        fill: #a2c2dd;
      }

      .cls-8 {
        fill: #afcdfb;
      }

      .cls-9 {
        fill: #aec3ff;
      }

      .cls-10 {
        fill: #172944;
      }

      .cls-11 {
        fill: #e1ecfe;
      }

      .cls-12 {
        fill: #98baf4;
      }

      .cls-13 {
        fill: #cb7d45;
      }

      .cls-14 {
        fill: #b64c41;
      }

      .cls-15 {
        fill: #ea6a60;
      }

      .cls-16 {
        fill: #a8302d;
      }

      .cls-17 {
        fill: #dfebfd;
      }

      .cls-18 {
        fill: #fff;
      }

      .cls-19 {
        fill: #f8fcff;
      }

      .cls-20 {
        fill: #ebf3fa;
      }

      .cls-21 {
        fill: #aa443e;
      }

      .cls-22 {
        opacity: .3;
      }

      .cls-22, .cls-26 {
        fill: #233862;
      }

      .cls-23 {
        fill: #0c2442;
      }

      .cls-24 {
        fill: #cce1ff;
      }

      .cls-25 {
        fill: #edf4ff;
      }

      .cls-27 {
        fill: #e2915a;
      }

      .cls-28 {
        fill: #ffb27d;
      }

      .cls-29 {
        fill: #acd29a;
      }

      .cls-30 {
        fill: #9db0f4;
      }

      .cls-31 {
        fill: #17467f;
      }

      .cls-32 {
        fill: #c65447;
      }

      .cls-33 {
        fill: #2b478b;
      }

      .cls-34 {
        fill: #1c468a;
      }

      .cls-35 {
        fill: #f99746;
      }

      .cls-36 {
        fill: #e8945b;
      }

      .cls-37 {
        fill: #d35c2b;
      }

      .cls-38 {
        fill: #ed7d2b;
      }
    </style>
  </defs>
  <path class="cls-25" d="M2958.29,1025.92c-1.91,95.93-23.23,190.14-56.75,279.75-4.84,12.7-31.62,93.91-43.82,93.91-19.04,0-38.09,0-57.14,0-211.27.04-422.54.07-633.81.1-416.33.06-832.66.12-1248.99.16-246.55.03-493.11.19-739.66.04-16.17,0-29.64-20.9-38.93-31.93-17.1-20.32-28.98-43.41-36.2-67.9-9.83-33.37-15.98-82.71,2.28-145.48,9.86-33.89,31-68.06,46.99-93.73,34.34-55.1,79.04-102.43,128.4-144.28,56.74-48.11,129.74-92.42,157.68-164.97,41.33-107.29-29.59-212.56-19.91-320.67,16.14-180.24,195.23-314.95,352.56-375.76C892.9,8.05,1028.01-3.35,1157.71.78c63.46,2.02,126.83,8.28,189.42,18.93,57.17,9.72,124.51,19.66,176.94,45.87,112.46,41.62,209.81,109.27,292.31,195.76,40.08,42.02,75.63,89.19,119.37,127.56,52.2,45.78,105.62,44.13,170.61,31.53,123.66-24.26,244.48-50.7,369.83-20.21,121.39,29.52,225.75,103.27,311.92,191.62,113.92,116.85,173.33,271.09,170.19,434.09-.12,6.23.74-38.66,0,0Z"/>
  <path class="cls-11" d="M638.95,1002.36s-94.72-23.47-131.93,35.34c-37.21,58.8-111.63,61.08-150.7,108.31-39.07,47.23-68.84,132.33,20.46,174.43,89.3,42.1,311.42-19.68,311.42-19.68l42.45-273.98-91.71-24.42Z"/>
  <path class="cls-29" d="M779.74,737.45s-12.69-78.17-79.67-110.03c-40.21-19.12-160.96-33.36-157.24,52.22,2.96,68-65.12,59.67-38.45,138.77,22.96,68.11,101.04,41.7,101.04,41.7l174.32-122.67Z"/>
  <path class="cls-29" d="M2826.34,1195.64c-89.02-71.1-218.3,14.88-243.11-81.86-24.81-96.75-141.98-104.05-141.98-104.05l-119.66,389.94c159.67-.02,319.33-.05,479-.07,19.04,0,38.09,0,57.14,0,12.19,0,38.98-81.21,43.82-93.91.43-1.14.84-2.29,1.27-3.44-10.9-30.44-35.16-73.59-76.47-106.6Z"/>
  <rect class="cls-12" x="1651.04" y="427.37" width="790.2" height="973.29"/>
  <rect class="cls-25" x="1729.86" y="474.97" width="711.39" height="106.02"/>
  <rect class="cls-18" x="1144.07" y="649.56" width="892.44" height="754.44"/>
  <rect class="cls-18" x="1122.01" y="622.15" width="928.47" height="27.41"/>
  <rect class="cls-18" x="1635.11" y="413.67" width="820.81" height="27.41"/>
  <rect class="cls-4" x="1144.07" y="717.75" width="577.42" height="140.23"/>
  <rect class="cls-8" x="605.42" y="738.94" width="538.65" height="298.76"/>
  <rect class="cls-8" x="605.42" y="1099.86" width="538.65" height="298.76"/>
  <rect class="cls-5" x="680.08" y="1037.7" width="464" height="62.16"/>
  <g>
    <path class="cls-18" d="M1222.62,838.23c-13.5,0-26.19-5.26-35.74-14.8-9.55-9.54-14.8-22.24-14.8-35.74s5.26-26.19,14.8-35.74c9.55-9.54,22.24-14.8,35.74-14.8s26.19,5.26,35.74,14.8c9.55,9.55,14.8,22.24,14.8,35.74s-5.26,26.19-14.8,35.74c-9.55,9.55-22.24,14.8-35.74,14.8ZM1222.62,741.81c-12.26,0-23.78,4.77-32.45,13.44s-13.44,20.19-13.44,32.45,4.77,23.78,13.44,32.45c8.67,8.67,20.19,13.44,32.45,13.44s23.78-4.77,32.45-13.44c8.67-8.67,13.44-20.19,13.44-32.45s-4.77-23.78-13.44-32.45c-8.67-8.67-20.19-13.44-32.45-13.44Z"/>
    <polygon class="cls-18" points="1255.26 779.45 1230.87 779.45 1230.87 755.05 1214.38 755.05 1214.38 779.45 1189.98 779.45 1189.98 795.94 1214.38 795.94 1214.38 820.34 1230.87 820.34 1230.87 795.94 1255.26 795.94 1255.26 779.45"/>
  </g>
  <g>
    <path class="cls-18" d="M1313.24,763.48h10.73v19.3h19.79v-19.3h10.73v48.77h-10.73v-19.58h-19.79v19.58h-10.73v-48.77Z"/>
    <path class="cls-18" d="M1364.04,787.87c0-13.87,10.94-25.22,25.99-25.22s25.85,11.22,25.85,25.22-10.94,25.22-25.99,25.22-25.85-11.22-25.85-25.22ZM1404.66,787.87c0-8.36-6.13-15.33-14.77-15.33s-14.63,6.83-14.63,15.33,6.13,15.33,14.77,15.33,14.63-6.83,14.63-15.33Z"/>
    <path class="cls-18" d="M1421.74,805.15l6.34-7.59c4.39,3.62,8.99,5.92,14.56,5.92,4.39,0,7.04-1.74,7.04-4.74,0-2.72-1.67-4.11-9.82-6.2-9.83-2.51-16.17-5.23-16.17-15.05,0-8.85,7.11-14.7,17.07-14.7,7.11,0,13.17,2.23,18.12,6.2l-5.57,8.08c-4.32-3-8.57-4.81-12.68-4.81s-6.27,1.88-6.27,4.39c0,3.21,2.09,4.25,10.52,6.41,9.89,2.58,15.47,6.13,15.47,14.77,0,9.68-7.39,15.12-17.91,15.12-7.39,0-14.84-2.58-20.69-7.8Z"/>
    <path class="cls-18" d="M1469.68,763.48h19.93c11.64,0,18.67,6.9,18.67,17,0,11.29-8.78,17.14-19.72,17.14h-8.15v14.63h-10.73v-48.77ZM1488.91,788.08c5.36,0,8.5-3.21,8.5-7.53,0-4.81-3.34-7.39-8.71-7.39h-8.29v14.91h8.5Z"/>
    <path class="cls-18" d="M1516.71,763.48h10.73v48.77h-10.73v-48.77Z"/>
    <path class="cls-18" d="M1551,773.37h-14.84v-9.89h40.41v9.89h-14.84v38.88h-10.73v-38.88Z"/>
    <path class="cls-18" d="M1595.24,763.13h9.89l20.9,49.12h-11.22l-4.46-10.94h-20.62l-4.46,10.94h-10.94l20.9-49.12ZM1606.53,791.84l-6.48-15.82-6.48,15.82h12.96Z"/>
    <path class="cls-18" d="M1633.57,763.48h10.73v39.02h24.32v9.75h-35.05v-48.77Z"/>
  </g>
  <rect class="cls-8" x="2081.36" y="1043.21" width="359.88" height="237.5"/>
  <rect class="cls-8" x="2081.36" y="693.5" width="359.88" height="237.5"/>
  <rect class="cls-8" x="1737.35" y="480.61" width="703.9" height="93.57"/>
  <polygon class="cls-17" points="1144.07 658.97 2036.52 685.88 2036.52 649.56 1144.07 649.56 1144.07 658.97"/>
  <rect class="cls-18" x="571.72" y="737.15" width="572.35" height="29.58"/>
  <path class="cls-29" d="M570.89,1276.51c-69.87,15.88-88.5,72.6-132.74,38.56-44.24-34.04-100.13-11.34-130.4-9.86-30.28,1.48-25.63-69.55-90.83-92.23-31.38-10.92-83.87-12.85-121.4-11.22-4.95,40.7.27,73.81,7.49,98.3,7.22,24.49,19.1,47.59,36.2,67.9,7.92,9.41,18.88,25.98,31.97,30.66h511.5c25.61-61.67-41.92-138-111.78-122.11Z"/>
  <path class="cls-19" d="M384.68,313.1s47.32-55.55,160.48-49.38c0,0,164.29-92.59,339.48-12.34,0,0,186.23-19.88,324.14,17.22,91.95,24.73,122.32,50.68,122.32,50.68l-946.43-6.17Z"/>
  <path class="cls-19" d="M1404.58,244.96c0-20.14,16.32-36.46,36.46-36.46s36.46,16.32,36.46,36.46-16.32,36.46-36.46,36.46-36.46-16.32-36.46-36.46Z"/>
  <path class="cls-19" d="M930.79,475.96s25.92-30.43,87.9-27.05c0,0,89.98-50.71,185.94-6.76,0,0,102-10.89,177.54,9.43,50.36,13.55,67,27.76,67,27.76l-518.38-3.38Z"/>
  <g>
    <rect class="cls-12" x="1282.96" y="1068.63" width="627.1" height="327.6"/>
    <rect class="cls-18" x="1304.04" y="1091.54" width="587.86" height="305.79"/>
    <rect class="cls-8" x="1326.3" y="1110.88" width="544.53" height="70.26"/>
    <rect class="cls-8" x="1326.3" y="1200.23" width="159.23" height="195.78"/>
    <rect class="cls-8" x="1500.68" y="1200.23" width="195.77" height="195.78"/>
    <rect class="cls-8" x="1709.91" y="1200.23" width="160.92" height="195.78"/>
    <polygon class="cls-24" points="1564.82 1200.23 1696.45 1200.23 1696.45 1272.68 1672.99 1396.01 1527.58 1396.01 1564.82 1200.23"/>
    <g>
      <g>
        <rect class="cls-18" x="1526.34" y="1237.48" width="146.46" height="158.75"/>
        <rect class="cls-12" x="1533.32" y="1244.66" width="132.49" height="151.57"/>
        <rect class="cls-18" x="1597.1" y="1244.66" width="4.94" height="151.57"/>
      </g>
      <g>
        <path class="cls-18" d="M1585.29,1320.44c0-1.73,1.4-3.13,3.13-3.13s3.13,1.4,3.13,3.13-1.4,3.13-3.13,3.13-3.13-1.4-3.13-3.13Z"/>
        <path class="cls-18" d="M1607.59,1320.44c0-1.73,1.4-3.13,3.13-3.13s3.13,1.4,3.13,3.13-1.4,3.13-3.13,3.13-3.13-1.4-3.13-3.13Z"/>
      </g>
    </g>
    <polygon class="cls-24" points="1376.95 1200.23 1457.57 1200.23 1431.84 1396.01 1351.21 1396.01 1376.95 1200.23"/>
    <polygon class="cls-24" points="1469.31 1110.88 1460.07 1181.14 1379.45 1181.14 1388.69 1110.88 1469.31 1110.88"/>
    <polygon class="cls-24" points="1748 1200.23 1828.62 1200.23 1802.88 1396.01 1722.26 1396.01 1748 1200.23"/>
    <polygon class="cls-24" points="1840.35 1110.88 1831.12 1181.14 1750.5 1181.14 1759.73 1110.88 1840.35 1110.88"/>
    <polygon class="cls-24" points="1727.23 1110.88 1713.86 1181.14 1568.45 1181.14 1581.82 1110.88 1727.23 1110.88"/>
  </g>
  <polygon class="cls-24" points="1710.04 1214.65 1710.33 1214.65 1710.04 1216.22 1710.04 1214.65"/>
  <path class="cls-29" d="M1238.8,1396.1s-3.87-34.25,30.86-42.94c34.73-8.68,48.36-39.69,88.68-13.64,40.32,26.05,27.56,56.58,27.56,56.58h-147.1Z"/>
  <polygon class="cls-2" points="2249.57 931.01 2130.5 931.01 2182.59 693.5 2301.66 693.5 2249.57 931.01"/>
  <polygon class="cls-24" points="2355.08 1280.71 2236 1280.71 2288.09 1043.21 2407.17 1043.21 2355.08 1280.71"/>
  <polygon class="cls-24" points="2185.73 1043.21 2133.63 1280.71 2081.36 1280.71 2081.36 1043.21 2185.73 1043.21"/>
  <polygon class="cls-24" points="2441.24 693.5 2441.24 931.01 2310.35 931.01 2368.48 693.5 2441.24 693.5"/>
  <rect class="cls-25" x="1909.71" y="480.61" width="9.92" height="93.57"/>
  <rect class="cls-25" x="2110.03" y="480.61" width="9.92" height="93.57"/>
  <rect class="cls-25" x="2305.39" y="480.61" width="9.92" height="93.57"/>
  <g class="cls-39">
    <g>
      <rect class="cls-12" x="668.53" y="846.17" width="59.67" height="94.19"/>
      <g>
        <path class="cls-18" d="M730.67,943.39h-65.74v-100.26h65.74v100.26ZM671,937.32h53.6v-88.12h-53.6v88.12Z"/>
        <rect class="cls-18" x="670.24" y="877.67" width="55.12" height="4.55"/>
        <rect class="cls-18" x="670.24" y="909.01" width="55.12" height="4.55"/>
        <rect class="cls-18" x="650.48" y="890.76" width="94.63" height="4.55" transform="translate(1590.84 195.24) rotate(90)"/>
      </g>
    </g>
    <g>
      <rect class="cls-12" x="840.83" y="846.17" width="59.67" height="94.19"/>
      <g>
        <path class="cls-18" d="M902.96,943.39h-65.74v-100.26h65.74v100.26ZM843.29,937.32h53.6v-88.12h-53.6v88.12Z"/>
        <rect class="cls-18" x="842.53" y="877.67" width="55.12" height="4.55"/>
        <rect class="cls-18" x="842.53" y="909.01" width="55.12" height="4.55"/>
        <rect class="cls-18" x="822.78" y="890.76" width="94.63" height="4.55" transform="translate(1763.13 22.95) rotate(90)"/>
      </g>
    </g>
    <g>
      <rect class="cls-12" x="1013.13" y="846.17" width="59.67" height="94.19"/>
      <g>
        <path class="cls-18" d="M1075.26,943.39h-65.74v-100.26h65.74v100.26ZM1015.59,937.32h53.6v-88.12h-53.6v88.12Z"/>
        <rect class="cls-18" x="1014.83" y="877.67" width="55.12" height="4.55"/>
        <rect class="cls-18" x="1014.83" y="909.01" width="55.12" height="4.55"/>
        <rect class="cls-18" x="995.08" y="890.76" width="94.63" height="4.55" transform="translate(1935.43 -149.35) rotate(90)"/>
      </g>
    </g>
  </g>
  <g class="cls-39">
    <g>
      <rect class="cls-12" x="668.53" y="1169.12" width="59.67" height="94.19"/>
      <g>
        <path class="cls-18" d="M730.67,1266.34h-65.74v-100.26h65.74v100.26ZM671,1260.28h53.6v-88.12h-53.6v88.12Z"/>
        <rect class="cls-18" x="670.24" y="1200.62" width="55.12" height="4.55"/>
        <rect class="cls-18" x="670.24" y="1231.97" width="55.12" height="4.55"/>
        <rect class="cls-18" x="650.48" y="1213.72" width="94.63" height="4.55" transform="translate(1913.79 518.2) rotate(90)"/>
      </g>
    </g>
    <g>
      <rect class="cls-12" x="840.83" y="1169.12" width="59.67" height="94.19"/>
      <g>
        <path class="cls-18" d="M902.96,1266.34h-65.74v-100.26h65.74v100.26ZM843.29,1260.28h53.6v-88.12h-53.6v88.12Z"/>
        <rect class="cls-18" x="842.53" y="1200.62" width="55.12" height="4.55"/>
        <rect class="cls-18" x="842.53" y="1231.97" width="55.12" height="4.55"/>
        <rect class="cls-18" x="822.78" y="1213.72" width="94.63" height="4.55" transform="translate(2086.09 345.9) rotate(90)"/>
      </g>
    </g>
    <g>
      <rect class="cls-12" x="1013.13" y="1169.12" width="59.67" height="94.19"/>
      <g>
        <path class="cls-18" d="M1075.26,1266.34h-65.74v-100.26h65.74v100.26ZM1015.59,1260.28h53.6v-88.12h-53.6v88.12Z"/>
        <rect class="cls-18" x="1014.83" y="1200.62" width="55.12" height="4.55"/>
        <rect class="cls-18" x="1014.83" y="1231.97" width="55.12" height="4.55"/>
        <rect class="cls-18" x="995.08" y="1213.72" width="94.63" height="4.55" transform="translate(2258.39 173.6) rotate(90)"/>
      </g>
    </g>
  </g>
  <rect class="cls-17" x="1130.21" y="969.54" width="932.61" height="32.82"/>
  <path class="cls-29" d="M823.39,737.15s16.12-52.47,55.82-51.27c39.69,1.2,52.1,37.73,65.74,31.87,13.64-5.86,53.34-2.48,55.82,19.4h-177.37Z"/>
  <g>
    <g>
      <path class="cls-26" d="M2713.73,1215.39v22.23c0,1.98-.47,3.88-1.31,5.56-2.04,4.09-6.29,6.9-11.15,6.9h-3.99c-6.83,0-12.46-5.59-12.46-12.46v-22.23c0-2.34.67-4.52,1.81-6.4v-.03c2.21-3.62,6.16-6.03,10.65-6.03h3.99c6.86,0,12.46,5.63,12.46,12.46Z"/>
      <path class="cls-22" d="M2712.43,1243.18c-2.04,4.09-6.29,6.9-11.15,6.9h-3.99c-6.83,0-12.46-5.59-12.46-12.46v-22.23c0-2.34.67-4.52,1.81-6.4.23,1.37,5.53,31.88,25.78,34.19Z"/>
    </g>
    <polygon class="cls-10" points="2516.25 1378.13 2577.83 1378.13 2577.83 1315.98 2513.59 1315.98 2516.25 1378.13"/>
    <path class="cls-18" d="M2710.41,1246.76l-302.51,7.46v-159.52h198.65c18.94,0,36.28,10.6,44.91,27.45l13,25.37,45.95,99.24Z"/>
    <path class="cls-26" d="M2538.56,1368.01c0,16.87,8.7,35.48,8.7,35.48h14.73c12.94,0,23.43-15.88,23.43-35.48s-25.22-35.48-38.16-35.48-8.7,15.88-8.7,35.48Z"/>
    <path class="cls-33" d="M2523.83,1368.01c0,19.59,10.49,35.48,23.43,35.48s23.43-15.88,23.43-35.48-10.49-35.48-23.43-35.48-23.43,15.88-23.43,35.48Z"/>
    <path class="cls-8" d="M2529.9,1368.01c0,14.76,7.9,26.72,17.65,26.72s17.65-11.96,17.65-26.72-7.9-26.72-17.65-26.72-17.65,11.96-17.65,26.72Z"/>
    <path class="cls-26" d="M2707.94,1368.01c0,16.87,8.7,35.48,8.7,35.48h14.73c12.94,0,23.43-15.88,23.43-35.48s-25.22-35.48-38.16-35.48-8.7,15.88-8.7,35.48Z"/>
    <path class="cls-33" d="M2693.21,1368.01c0,19.59,10.49,35.48,23.43,35.48s23.43-15.88,23.43-35.48-10.49-35.48-23.43-35.48-23.43,15.88-23.43,35.48Z"/>
    <path class="cls-26" d="M2318.97,1368.01c0,16.87,8.7,35.48,8.7,35.48h14.73c12.94,0,23.43-15.88,23.43-35.48s-25.22-35.48-38.16-35.48-8.7,15.88-8.7,35.48Z"/>
    <path class="cls-33" d="M2304.24,1368.01c0,19.59,10.49,35.48,23.43,35.48s23.43-15.88,23.43-35.48-10.49-35.48-23.43-35.48-23.43,15.88-23.43,35.48Z"/>
    <path class="cls-18" d="M2778.13,1351.27c.03,14.83-11.99,26.85-26.79,26.85h-173.52c.5-2.91.77-5.93.77-9.04,0-22.94-13.76-41.55-30.71-41.55s-30.74,18.62-30.74,41.55c0,3.11.23,6.13.74,9.04h-101.39s-4.09-45.27-3.58-67.97c.4-19.76.4-58.46-.77-67.91,0-1.41,97.78-1.58,122.45-1.67,3.35-.03,5.36-.03,5.56-.03l.33.23.37.27c4.55,3.18,30.07,21.06,45.91,31.54,13.96,9.21,117.03,12.96,157.45,14.1,10.05.27,16.24.37,16.24.37,0,0,5.53,5.66,10.41,14.6,3.75,6.93,7.1,15.84,7.17,25.58.03,6.06.07,13.36.07,20.53.03,1.17.03,2.34.03,3.52Z"/>
    <path class="cls-12" d="M2686.02,1240.54h-135.95c-3.15,0-5.99-1.84-7.3-4.69l-33.65-74.87c-1.11-2.44.7-5.22,3.38-5.22h143.42c3.15,0,6.03,1.88,7.3,4.79l24.11,55.08,6.03,13.76c2.28,5.26-1.57,11.15-7.33,11.15Z"/>
    <path class="cls-17" d="M2622.69,1347.75c-.03,2.35-.13,4.56-.26,6.53-.98,13.03-14.07,23.84-14.07,23.84h-30.54c.5-2.91.78-5.93.78-9.04,0-7.79-1.61-15.1-4.35-21.33-5.4-12.11-15.17-20.22-26.35-20.22s-21,8.11-26.4,20.22c-2.74,6.23-4.35,13.54-4.35,21.33,0,3.12.24,6.13.75,9.04h-110v-283.41h88.3l.42,52.81s1.49,7.92,4.5,14.99c2.7,6.32,6.29,14.73,10.19,23.88,8.04,18.77,17.43,40.68,23.3,54.17,2.94,6.83,5.02,11.48,5.55,12.49,1.65,3.14,26.15,16.42,46.86,28.21,5.17,2.94,10.11,5.78,14.38,8.35,6.1,3.67,10.87,6.77,13.12,8.81,5.65,5.09,8.47,31.55,8.17,49.32Z"/>
    <polygon class="cls-18" points="2760.45 1287.05 2599.33 1287.05 2540.49 1240.77 2540.16 1240.54 2702.69 1240.54 2748.97 1277.77 2760.45 1287.05"/>
    <path class="cls-16" d="M2620.19,1314.24l-14.57-1.44c-5.09-.5-9.21-4.32-10.11-9.34l-3.35-18.42c-.07-.3-.1-.57-.07-.87,10.38,5.96,19.12,11.28,22.43,14.26,2.41,2.18,4.32,8.2,5.66,15.81Z"/>
    <path class="cls-18" d="M2664.47,1147.52h-167.86s-.65-10.74-4.86-23.01c-3.75-10.83-10.23-22.92-21.57-29.81h137.17c22.36,0,42.17,11.94,50.04,29.81.37.74.69,1.48.97,2.22,2.36,6.2,4.49,13.15,6.11,20.79Z"/>
    <path class="cls-7" d="M2620.22,1314.24l-14.6-1.44c-5.09-.5-9.21-4.32-10.11-9.34l-3.35-18.42c-.07-.3-.1-.6-.07-.9,10.38,5.99,19.12,11.32,22.43,14.3,2.41,2.18,4.32,8.2,5.69,15.81Z"/>
    <path class="cls-26" d="M2778.13,1351.27c.03,14.83-12.56,26.85-28.09,26.85h-172.21c.5-2.91.77-5.93.77-9.04,0-7.8-1.61-15.1-4.35-21.33h203.86c.03,1.17.03,2.34.03,3.52Z"/>
    <path class="cls-26" d="M2517.15,1369.08c0,3.11.23,6.13.74,9.04h-110v-30.37h113.62c-2.75,6.23-4.35,13.53-4.35,21.33Z"/>
    <path class="cls-26" d="M2664.69,1288.36h65.89c2.1,0,3.71,2.84,3.39,5.98l-2.34,22.9c-.34,3.37-2.26,5.85-4.51,5.85h-54.28c-3.48,0-6.55-3.44-7.56-8.48l-3.91-19.47c-.68-3.38.99-6.79,3.33-6.79Z"/>
    <path class="cls-8" d="M2687.32,1215.62c-77.72-3.98-130.29-45.57-146.16-59.87h114.75c3.15,0,6.03,1.88,7.3,4.79l24.11,55.08Z"/>
    <rect class="cls-18" x="2145" y="1094.7" width="293.98" height="283.45"/>
    <path class="cls-17" d="M2664.47,1147.52h-167.86s-.65-10.74-4.86-23.01h165.64c.37.74.69,1.48.97,2.22,2.36,6.2,4.49,13.15,6.11,20.79Z"/>
    <path class="cls-26" d="M2770.87,1301.65c-.94,1.54-2.14,2.55-3.45,2.78l-22.6,4.19c-1.91.37-3.38-2.95-2.88-6.36l2.21-15.2.07-.37.43-3.11c.4-2.68,1.57-4.72,3.01-5.29l1.31-.5,11.48,9.28s5.53,5.66,10.41,14.6Z"/>
    <rect class="cls-15" x="2145.01" y="1281.26" width="469.51" height="23.89"/>
    <rect class="cls-15" x="2145" y="1143.81" width="293.98" height="23.88"/>
    <g>
      <path class="cls-15" d="M2250.15,1223.95c0-23.11,18.73-41.84,41.84-41.84s41.85,18.73,41.85,41.84-18.74,41.85-41.85,41.85-41.84-18.74-41.84-41.85Z"/>
      <g>
        <path class="cls-18" d="M2291.99,1260.99c-9.9,0-19.2-3.85-26.2-10.85s-10.85-16.3-10.85-26.2,3.85-19.2,10.85-26.2c7-7,16.3-10.85,26.2-10.85s19.2,3.85,26.2,10.85c7,7,10.85,16.3,10.85,26.2s-3.85,19.2-10.85,26.2c-7,7-16.3,10.85-26.2,10.85ZM2291.99,1190.31c-8.99,0-17.43,3.5-23.79,9.85-6.35,6.35-9.85,14.8-9.85,23.79s3.5,17.43,9.85,23.79c6.35,6.35,14.8,9.85,23.79,9.85s17.43-3.5,23.79-9.85,9.85-14.8,9.85-23.79-3.5-17.43-9.85-23.79c-6.35-6.35-14.8-9.85-23.79-9.85Z"/>
        <polygon class="cls-18" points="2315.92 1217.9 2298.04 1217.9 2298.04 1200.02 2285.95 1200.02 2285.95 1217.9 2268.06 1217.9 2268.06 1229.99 2285.95 1229.99 2285.95 1247.87 2298.04 1247.87 2298.04 1229.99 2315.92 1229.99 2315.92 1217.9"/>
      </g>
    </g>
    <path class="cls-26" d="M2647.84,1316.98l-27.62-2.75h-.03l-14.57-1.44c-5.09-.5-9.21-4.32-10.11-9.34l-3.35-18.42c-.07-.3-.1-.57-.07-.87v-.03c-.17-3.88,3.38-7.03,7.37-6.23l43.03,8.74c2.75.57,4.92,2.61,5.66,5.29l5.06,18.69c.94,3.42-1.84,6.73-5.36,6.36Z"/>
    <path class="cls-12" d="M2497.18,1169.22l28.96,71.33h-49.69s-10.19-1.71-11.5-22.54c-1.4-22.24-1.39-60.61-1.39-60.61l21.81-.1c8.31,1.26,9.62,5.82,11.81,11.93Z"/>
    <path class="cls-26" d="M2511.4,1203.92s2.51,28.83-11.72,36.72h26.59l-14.87-36.72Z"/>
    <path class="cls-26" d="M2515.31,1223.22s-6-4.27-6.52-7.81v20.16h7.86l-1.34-12.35Z"/>
    <path class="cls-26" d="M2508.78,1215.39v22.23c0,1.98-.47,3.88-1.31,5.56-2.04,4.09-6.29,6.9-11.15,6.9h-3.99c-6.83,0-12.46-5.59-12.46-12.46v-22.23c0-2.34.67-4.52,1.81-6.4v-.03c2.21-3.62,6.16-6.03,10.65-6.03h3.99c6.86,0,12.46,5.63,12.46,12.46Z"/>
    <path class="cls-26" d="M2439.27,1369.08c0,3.11.43,6.13,1.36,9.04h-202.41v-30.37h209.06c-5.05,6.23-8.01,13.53-8.01,21.33Z"/>
    <path class="cls-26" d="M2346.06,1369.08c0,3.11.43,6.13,1.36,9.04h-202.41v-30.37h209.06c-5.05,6.23-8.01,13.53-8.01,21.33Z"/>
    <path class="cls-10" d="M2241.02,1378.14h-72.31c-1.53-6.53-6.13-53,34.4-53.01,36.83,0,39.54,42.4,37.91,53.01Z"/>
    <g>
      <path class="cls-26" d="M2191.35,1368.01c0,16.87,8.7,35.48,8.7,35.48h14.73c12.94,0,23.43-15.88,23.43-35.48s-25.22-35.48-38.16-35.48-8.7,15.88-8.7,35.48Z"/>
      <path class="cls-33" d="M2176.62,1368.01c0,19.59,10.49,35.48,23.43,35.48s23.43-15.88,23.43-35.48-10.49-35.48-23.43-35.48-23.43,15.88-23.43,35.48Z"/>
      <path class="cls-8" d="M2182.7,1368.01c0,14.76,7.9,26.72,17.65,26.72s17.65-11.96,17.65-26.72-7.9-26.72-17.65-26.72-17.65,11.96-17.65,26.72Z"/>
    </g>
  </g>
  <g>
    <path class="cls-6" d="M1716.99,1076.69c-1.5-2.89,32.68-13.29,33.22,15.22,0,0,64.03-1.57,33.46-37.26-10.58-12.35-9.5-22.57-9.18-32.08.32-9.51-6.59-37.15-30.29-34.37,0,0-6.21-2.53-13.95,1.49-17.62,9.14-57.08,97.51-13.26,87Z"/>
    <path class="cls-28" d="M1821.67,1108.57s4.17-6.35,7.53-6.47c3.36-.12,9.58-1.87,9.08-.62-.5,1.24-4.35,1.37-4.73,2.12-.37.75,5.72,1.87,7.46,1.99,1.74.12,5.85,0,5.72.87-.12.87-7.4,4.48-12.53,3.98-5.13-.5-11.48,1.49-11.48,1.49l-1.06-3.36Z"/>
    <path class="cls-6" d="M1761.39,1110.63s2.27,4.49,6.38,9.64c4.95,6.2,12.59,13.37,22.18,14.78,4.58.68,9.06-.31,13.18-2.14.01,0,.01,0,.01,0,11.65-5.17,20.4-17.06,20.4-17.06,2.05-5.6-1.31-9.39-1.31-9.39,0,0-23.51,5.29-25.75,4.17-2.24-1.12-15.3-38.75-18.41-43.48-3.11-4.73-13.71-7.18-13.71-7.18l-2.96,50.67Z"/>
    <path class="cls-26" d="M1673.67,1364.45s-7.17,6.55-5.78,11.2c1.4,4.65,7.88,7.75,8.75,13.44.88,5.69,4.38,8.79,7.53,8.79h15.02s2.32-4-3.28-5.21c-5.6-1.21-7.71-7.89-7.36-14.09.35-6.2-.53-14.47-.53-14.47l-11.9-2.76-2.45,3.1Z"/>
    <path class="cls-26" d="M1734.4,1367.22s-2.58,27.74.57,29.29l40.31-.08s0-4.65-6.48-5.69c-6.47-1.03-17.85-4.83-19.77-13.27-1.93-8.44-14.63-10.25-14.63-10.25Z"/>
    <path class="cls-28" d="M1705.67,1168.22c8.3-18.6,13.37-23.94,12.4-29.72-.72-4.3,2.2-80.13,2.2-80.13.98-.3,2.96-.58,4.04-.82,3.4-.76,6.22-3.15,7.39-6.43,1.41-3.95,2.53-9.79,2.51-17.11l1.06.21,17.87,3.54s-.41,5.62-.42,10.92c0,.04,0,.09,0,.13-.02,4.6,3,8.66,7.42,9.94,2.26.65,4.22,1.21,4.22,1.21,0,0,6.56,18.73,7.81,37.97,1.25,19.24-11.93,27.6.1,66.06,12.28,39.27-71.18,14.51-66.6,4.23Z"/>
    <path class="cls-36" d="M1753.13,1037.76s-.41,5.62-.42,10.92c-10-.28-15.28-9.4-17.45-14.46l17.87,3.54Z"/>
    <path class="cls-28" d="M1756.47,1042.78s-23.66.39-23.67-14.35c-.02-14.74-3.08-24.61,12.02-25.48,15.1-.87,18.04,4.75,19.25,9.66,1.2,4.92-1.44,29.68-7.6,30.16Z"/>
    <path class="cls-6" d="M1755.6,1002.59s-6.48,17.29-16.42,19.84c-9.94,2.56-14.25-.11-14.25-.11,0,0,7.62-6.06,9.21-16.63,0,0,16.58-11.33,21.46-3.11Z"/>
    <path class="cls-6" d="M1753.99,1003.99s4.8,1.8,6.78,5.3c1.93,3.43,3.58,7.96,3.2,13.53,0,0,4.88-11.75-.6-18.4-5.82-7.05-9.37-.43-9.37-.43Z"/>
    <path class="cls-20" d="M1751.33,1033.64s1.63,2.15,4.9,1.99c2.63-.12,3.65-2.41,3.65-2.41,0,0-4.83-1.16-8.54.41Z"/>
    <path class="cls-6" d="M1708.89,1091.91s.09,11.22.69,21.38c.4,6.74,1.02,13.01,1.99,15.24,2.43,5.6,5.16,6.51,5.16,6.51l21.17,5.19,7.44,1.82,23.47-7.01s10.69-29.84,6.4-46.63c-4.29-16.8-10.85-28.46-10.85-28.46,0,0-19.15,18.75-44.09-1.59l-11.38,33.55Z"/>
    <path class="cls-38" d="M1767.31,1139.58s11.62,36.18,12.37,48.49c.75,12.32-22.22,174.97-23.14,180.65-.87,5.35-7.51,8.76-7.51,8.76,0,0-3.06,1.8-7.42.57-6.05-1.71-7.96-3.75-7.96-3.75,0,0-9.05-116-3.45-157.44,5.6-41.44,5.66-77.27,5.66-77.27h31.45Z"/>
    <path class="cls-35" d="M1718.07,1138.5s-17.73,23.79-19.38,39.87c-1.65,16.08-2.59,72.56-6.11,88.24-3.52,15.68-16.46,45.84-16.46,94.74,0,0,1.34,2.8,5.5,4.3,1.33.48,3.11.94,4.83,1.34,3.42.79,6.94-.89,8.5-4.04,8.75-17.61,36.61-74.41,38.04-86.2,1.01-8.34,9.81-63.57,29-95.97,4.61-7.78-2.83-38.71-2.83-38.71l-41.08-3.56Z"/>
    <path class="cls-18" d="M1751.85,1034.03s.41,1.74,4.73,1.47c0,0,3.63-.22,3.52-2.13,0,0-3.52-1.36-8.25.66Z"/>
    <path class="cls-26" d="M1769.17,1133.99s-4.67,3.69-13.93,3.88c-11.07.22-38.51-2.82-38.51-2.82,0,0-1.22,3.41-1.17,7,0,0,33.51,8.45,52.92,1.23,0,0,2.5-4.71.69-9.29Z"/>
    <path class="cls-18" d="M1752.84,1141.69c0-3.15,2.27-5.72,5.05-5.72s5.05,2.57,5.05,5.72-2.27,5.72-5.05,5.72-5.05-2.57-5.05-5.72ZM1754.51,1141.69c0,2.23,1.51,4.04,3.38,4.04s3.38-1.81,3.38-4.04-1.52-4.04-3.38-4.04-3.38,1.81-3.38,4.04Z"/>
    <rect class="cls-6" x="1676.48" y="1171.46" width="53.94" height="30.23" transform="translate(3118.53 2705.55) rotate(-167.83)"/>
    <path class="cls-31" d="M1733,1177.49s-14.74,12.35-31.12,8.05c-16.38-4.3-21.6-19.42-21.6-19.42l52.73,11.37Z"/>
    <path class="cls-31" d="M1722.7,1175.55c0-1.61,1.31-2.93,2.93-2.93s2.93,1.31,2.93,2.93-1.31,2.93-2.93,2.93-2.93-1.31-2.93-2.93ZM1723.67,1175.55c0,1.08.88,1.96,1.96,1.96s1.96-.88,1.96-1.96-.88-1.96-1.96-1.96-1.96.88-1.96,1.96Z"/>
    <path class="cls-28" d="M1682.7,1179.26s-.02,4.28-.83,6.35c-.81,2.07-3.25,4.82-4.06,4.82s.74-4.3.34-4.22c-.41.09-2.37,7.16-3.79,7.34-1.42.17-2.71-7.94-1.97-11.12.74-3.18,3.96-7,3.96-7l6.35,3.84Z"/>
    <path class="cls-6" d="M1720.27,1058.37s-13.09,1.78-20.13,15.65c-5.44,10.72-9.18,44.46-13.02,55.08-3.68,10.16-8.75,29.81-11.58,45.56-.22,1.22.45,2.42,1.61,2.88l4.81,1.91c1.04.41,2.22.01,2.79-.95,4.28-7.18,21.14-35.93,26.99-52.57,6.84-19.45,19.65-31.53,19.65-31.53l-11.13-36.03Z"/>
    <path class="cls-23" d="M1726.59,1173.28c.03-.48,3.08-48.58,2.49-75.63-.31-14.2-2.5-24.21-4.29-30.1-1.95-6.43-4.86-9.06-4.94-9.19l-.99.29c.07.12,8.15,12.27,8.72,39.02.58,26.98-2.46,75.02-2.49,75.5l1.49.09Z"/>
  </g>
  <g>
    <g>
      <path class="cls-28" d="M908.03,1372.35l-7.47-2.42s-1.55-20.28,1.77-44.59c2.1-15.4,5.97-32.08,12.96-45.48,3.17-6.06,6.97-11.45,11.55-15.75,0,0,5.73-13.31,13.33-31.11,8.44-19.79,61.29-25.59,31.13,15.86-6.19,8.5-12.83,23.48-20.79,32.57-13.6,15.54-23.2,33.69-29.8,49.66-9.42,22.85-12.68,41.25-12.68,41.25Z"/>
      <path class="cls-28" d="M891.02,1373.48c-2.27,3.67,2.63,7.27,8.68,10.66,6.05,3.39,3.55,3.73,11.28,9.49,7.74,5.76,12.3,5.13,13.49,4.28,1.05-.75-2.11-4.3-5.43-8.2-.42-.49-.83-.98-1.25-1.48-3.71-4.44-4.26-10.01-5.99-15.79-1.65-5.47.96-19.08.96-19.08l-10.33-8.2s-2.1,12.37-3.25,17.52c-.68,3.03-3.16,5.57-5.17,7.43-1.09,1.02-2.2,2.07-2.99,3.36Z"/>
      <path class="cls-34" d="M899.69,1384.14c6.05,3.39,3.55,3.73,11.28,9.49,7.74,5.76,12.3,5.13,13.49,4.28,1.05-.75-2.11-4.3-5.43-8.2l-.1.04s-6.99-.94-12.96-6.24c-4.87-4.32-8.64-10.38-11.97-13.39-1.09,1.02-2.2,2.07-2.99,3.36-2.27,3.67,2.63,7.27,8.68,10.66Z"/>
    </g>
    <g>
      <path class="cls-28" d="M863.87,1385.52l-8.61,4.46s-5.15-6.71-9.75-14.82c-3.22-5.68-6.18-12.04-6.9-17.26-1.76-12.66-15.17-33.48-13.77-37.02,1.39-3.54,27.98-9.68,27.98-9.68,0,0,5.2,35.58,8.65,58.58,1.01,6.71,1.87,12.35,2.41,15.73Z"/>
      <path class="cls-33" d="M857.31,1335.85c-4.92,2.39-9.49,3.76-13.42,4.53-5.85,1.15-10.24.95-12.19.76-.72-.07-1.1-.14-1.1-.14,0,0-4.78-3.45-10.33-11.48-5.08-7.36-8.86-17.89-8.86-18.02l40.6-3.95,5.29,28.3Z"/>
      <path class="cls-26" d="M843.89,1340.37c-5.85,1.15-10.24.95-12.19.76l4.56-17.72s5.91,9.23,7.63,16.96Z"/>
      <path class="cls-18" d="M863.87,1385.52l-8.61,4.46s-5.15-6.71-9.75-14.82c3.58-.27,9.81-1.35,15.96-5.37,1.01,6.71,1.87,12.35,2.41,15.73Z"/>
      <path class="cls-28" d="M844.3,1319.34s-10.88,15.36-17.48,36.94c-1.55,5.09-6.84,11.42-12.18,17.04-5.18,5.46-10.42,10.25-12.36,12.61l-8.77-4.22s3.08-8.84,7.64-16.87c1.69-2.98,3.58-5.85,5.61-8.12,2.79-3.13,1.87-42.62,4.66-45.23,2.79-2.6,32.88,7.85,32.88,7.85Z"/>
      <path class="cls-33" d="M849.48,1310.2l-16.07,32.66c-.09.01-11.98.37-20.41-4.35-4.84-2.71-7.01-5.91-7.01-5.91l5.01-22.39h38.48Z"/>
      <path class="cls-14" d="M820.7,1201.16s-5.47-11.49-18.67-4.65c-13.2,6.84-.35,32.92-7.28,39.37-6.93,6.44,2.51,10.66,1.1,15.28-1.41,4.62,2.61,9.87,11.85,9.25,9.24-.62,18.97-.12,23.14-8.2,4.17-8.08,3.23-25.87,1.61-28.37-1.61-2.5-11.76-22.67-11.76-22.67Z"/>
      <path class="cls-28" d="M819.6,1248.91l.04.02s-.04-.02-.04-.02Z"/>
      <path class="cls-28" d="M842.1,1262.48l-22.45-13.55c.12-.05.58-.73,2.26-5.58.71-2.07,1.09-3.87,1.28-5.29.02-.14.04-.28.05-.42.23-2.07.06-3.26.06-3.26l4.92,1.78,9.1,3.29c-.11,2.31.22,3.93.71,5.04,1.19,2.7,3.4,2.72,3.46,2.72l.62,15.26Z"/>
      <path class="cls-3" d="M838.02,1244.49c-8.79.75-13.74-4.99-14.83-6.43-.16-.21-.24-.33-.24-.33,0,0,.11-.03.29-.09.71-.21,2.65-.8,4.98-1.49l9.1,3.29c-.11,2.31.22,3.93.71,5.04Z"/>
      <path class="cls-28" d="M838.46,1241.34s-19.53,2.15-19.93-11.06c-.4-13.21-3.29-19.25,10.23-20.43,13.51-1.18,16.71,3.69,17.5,8.16,2.49,13.96-2.29,22.74-7.8,23.33Z"/>
      <path class="cls-37" d="M802.03,1196.5c-.27-.61-.47-1.01-.47-1.01.2.28.36.62.47,1.01Z"/>
      <path class="cls-28" d="M844.74,1248.54s18.73-14.39,20.73-19.15c2-4.76,10.6-22.2,12.82-23.98,0,0,4.66-.6,5.32,2.62.67,3.22-4.43,22.35-7.99,28.12-3.55,5.77-20.58,25.35-26.17,28.19l-4.7-15.81Z"/>
      <path class="cls-28" d="M890.25,1196.59c-.31,1.67-.99,3.46-1.79,4.38-1.05,1.24-2.72,3.7-3.77,5.31-.68.99-1.11,1.73-1.11,1.73l-5.31-2.59s-.12-9.02,3.4-10.93c.12-.06.18-.12.31-.12,1.48-.8,2.9-1.36,4.14-1.73,1.67-.43,2.96-.49,3.7-.06.68.37.8,2.16.43,4.01Z"/>
      <path class="cls-14" d="M829.8,1216.3c-6.91-1.75-4.27,10.5-6.01,9.66-1.95-.94-5.31-.92-4.78,1.44.53,2.36,1.29,3.2,1.69,4.68.4,1.47,0,4.39-1.61,3.8s-16.55-17.65-6-30.95c10.55-13.29,42.02-5.1,32.11,8.8-1.74,2.45-10.48,3.82-15.4,2.58Z"/>
      <path class="cls-35" d="M854.89,1315.02s-5.87,3.11-15.11,2.97c-5.89-.09-18.39-2.65-26.42-5.55-4.58-1.65-7.71-3.41-7.33-4.89.54-2.13,4.46-18.5,8.09-33.65,3.31-13.85,6.38-26.68,6.38-26.68,0,0,9.15,6.5,14.48,4.21,5.33-2.3,4.65-4.89,4.65-4.89,0,0,3.49-1.41,5.12-.89,1.63.52,6.28-2.11,6.28-2.11,0,0,5.13,3.96,5.32,12.47.03,1.26-.04,2.62-.27,4.08l-3.7,4.26s7.85,24.75,2.52,50.67Z"/>
      <path class="cls-21" d="M878.13,1396.1h-25.72s-.49-4.18.1-7.76c.07-.44.3-.83.64-1.17,1.51.51,3.72.87,6.18-.01,2.02-.72,3.51-1.83,4.55-2.83.27.26,5.58,5.32,8.04,5.32s6.37,1.21,6.22,6.45Z"/>
      <path class="cls-18" d="M814.64,1373.32c-5.18,5.46-10.42,10.25-12.36,12.61l-8.77-4.22s3.08-8.84,7.64-16.87c1.57,2.44,5.69,7.47,13.49,8.48Z"/>
      <path class="cls-21" d="M804.18,1383.66s-.32,5.58,1.54,6.32c1.86.74,5.33,2.57,5.33,6.11h-12.88s-8.88-4.37-10.07-6.23c-1.18-1.86,5.92-9.78,5.92-9.78,0,0,4.36,4.83,10.16,3.57Z"/>
      <path class="cls-28" d="M825.5,1292.92s5.64-1.05,7.85.39c2.21,1.44,2.86,3.7,1.27,4.63-4.98,2.89-10.03-.31-10.03-.31l.91-4.71Z"/>
      <path class="cls-28" d="M820.72,1248.98s-17.37,3.68-24.23,30.69c-.67,2.64.02,5.46,1.85,7.49,3.15,3.49,10.1,8.6,26.25,10.48,1.76.21,2-4.27,2-4.27-.18.36-10.97-6.98-15.57-10.92-.83-.71-.8-2.21-.2-3.12,1.55-2.37,4.16-6.47,5.03-8.57,1.28-3.07,9.71-20.38,4.86-21.78Z"/>
      <path class="cls-35" d="M820.49,1247.22s-10.21.73-18.54,11.83c0,0,2.82,10.22,16.05,12.94,0,0,8.16-18.39,2.49-24.78Z"/>
    </g>
    <path class="cls-14" d="M959.77,983.36s-18.23-2.22-27.39,14.74c-9.16,16.96-8.42,41.53-17.31,53.12-8.88,11.59,1.48,22.58,1.48,22.58l69.22,2.34s4.81-12.96,0-28.5c-4.81-15.55,18.69-61.93-26-64.28Z"/>
    <path class="cls-36" d="M1018.37,1189.21c-.71,2.71-3.03,8.82-4.83,8.82-1.47,0-1.99-7.48-3.88-9.07-2.74-2.3-4.97-7.14-5.33-8.31-.73-2.41-1.42-2.92-1.42-2.92h0s0,0,0,0c0,0-21.89-40.02-23.6-50.26-.56-3.33-1.99-10.03-3.68-17.52-1.83-8.15-3.95-17.25-5.55-24.06,6.99-1.36,14.72-1.84,21.02-1.96,1.28,8.29,2.43,16.76,3.42,24.13,1.47,10.95,2.59,19.45,3.28,21.27,1.9,5,7.15,31.93,12.09,45.91.57,1.38,2.17,4.96,3.93,6.18,2.2,1.52,5.26,5.1,4.56,7.81Z"/>
    <path class="cls-28" d="M978.7,1149.71c-12.09-38.65,12.25-38.14,10.99-57.48-1.26-19.34-16.23-40.13-16.23-40.13,0,0-.54-.05-1.47-.14-.51-.05-.95-.38-1.13-.87-.56-1.53-.72-4.87-.71-8.36.01-5.32.42-10.97.42-10.97l-17.96-3.56-1.07-.21c.03,9.03-1.68,15.82-3.53,19.62-.88,1.8-2.6,3.04-4.59,3.32-3.86.54-10.64,1.69-15.22,3.61-2.22.93-3.92,2.03-4.51,3.33-4.93,10.84-9.85,38.21-13.31,57.73-1.93,10.88-3.4,19.32-4.17,21.11-2.14,4.99-8.68,32.46-14.27,46.02l7.14,2.14s23.54-39.07,25.68-49.23c.7-3.31,2.41-9.93,4.41-17.35.3-1.12.61-2.26.92-3.41,3.53,9.57,5.33,14,5.23,18.13-.14,5.88-4.13,11.17-12.46,29.87-4.61,10.33,68.19,26.32,55.84-13.15Z"/>
    <path class="cls-36" d="M970.56,1031.76s-.41,5.65-.42,10.97c-10.05-.28-15.36-9.45-17.54-14.53l17.96,3.56Z"/>
    <path class="cls-28" d="M973.92,1036.8s-23.77.39-23.79-14.42c-.02-14.81-3.1-24.73,12.08-25.61,15.18-.88,18.13,4.77,19.34,9.71,1.21,4.94-1.45,29.83-7.63,30.31Z"/>
    <path class="cls-28" d="M1007.09,1381.94l-7.63,1.88s-12-16.43-21.97-38.84c-6.32-14.2-11.82-30.42-12.93-45.49-.5-6.82-.1-13.41,1.52-19.47,0,0-2.13-14.34-5.05-33.47-3.24-21.27-7.44-48.46-10.73-68.45l1.99-.59,32.46-18.98s14.92,34,11.1,85.11c-.78,10.49,1.46,26.71-.53,38.64-3.38,20.38-1.99,40.86.82,57.91,4.02,24.38,10.94,41.75,10.94,41.75Z"/>
    <path class="cls-13" d="M928.69,1111.02c4.46,12.31,6.75,17.33,6.64,21.98,14.2-21.99,39.86-25.31,39.86-25.31l-48.71-5.57c.45,3.01,1.17,6,2.22,8.9Z"/>
    <path class="cls-14" d="M980.85,998.25c-3.67-4.45-6.44-3.48-8-2.14-12.75-7.07-21.38,3.42-21.38,3.42-1.59,10.63-9.25,16.71-9.25,16.71,0,0,4.23,2.25,14.32.11,11.98-2.54,15.27-16.04,15.75-17.79,1.45,1.3,4.31,4.13,5.18,6.91,1.19,3.77,1.72,11.53,3.98,11.27,0,0,4.9-11.81-.61-18.49Z"/>
    <path class="cls-28" d="M892.45,1181.54s-2.17,5.11-4.43,6.54c-2.26,1.43-5.47,4.88-4.88,7.61.59,2.74,1.19,7.02,4.04,7.02s9.51-12.6,10.35-14.98c.83-2.38,1.55-2.85,1.55-2.85l-6.63-3.33Z"/>
    <path class="cls-18" d="M1004.47,1293.93c-28.71,16.4-104.28-9.72-104.2-11.23.4-8.03,7.66-56.36,16.19-102.48,5.24-28.36,19.2-38.96,16.97-40.75-.02-.02-.03-.03-.03-.03-8.61-6.11-4.89-16.59-4.32-20.34-2.64.71-11.17,2.32-20.93-3.07,4.02-19.66,9.75-47.22,15.49-58.14.28-.53.76-1.02,1.41-1.49-.04-.04-.06-.07-.06-.07,5.38-3.92,16.36-5.12,16.36-5.12,0,0,5.92,14.49,7.73,16.76,11.72,14.64,32.76,8.03,29.89-1.09-1.03-3.32-6.35-13.77-7-14.94-.03-.06,1.49.14,1.49.14,3.53.47,6.03.82,7.83,1.13,3.53.6,4.41,1.02,5.29,1.7,3.1,3.1,7.13,10.79,7.45,24.53.12,5.11,5.44,61.51-11.77,60.54-.39-.02-.06.9.69,2.64,2.43,5.59,9.33,19.6,11.33,37.58,6.51,58.49,10.19,113.71,10.19,113.71Z"/>
    <path class="cls-18" d="M967.09,1028.06s.45,1.82,5,1.49c0,0,3.82-.28,3.68-2.29,0,0-3.72-1.39-8.67.8Z"/>
    <path class="cls-28" d="M897.53,1187.72s-.78,5.75-2.3,7.08c-1.52,1.33-1.74,3.72-3.29,2.43-1.55-1.29,5.59-9.51,5.59-9.51Z"/>
    <path class="cls-28" d="M993.23,1391.86c0,4.31,6.06,4.79,12.99,4.49,6.93-.3,4.98,1.3,14.59,2.13,9.61.82,13.16-2.12,13.72-3.46.5-1.19-4.06-2.55-8.93-4.11-.61-.19-1.23-.4-1.84-.6-5.49-1.82-8.89-6.27-13.41-10.27-4.28-3.79-9.23-16.73-9.23-16.73l-13.1-1.54s4.73,11.62,6.46,16.61c1.02,2.93.25,6.39-.48,9.04-.39,1.44-.78,2.91-.78,4.43Z"/>
    <path class="cls-34" d="M1006.21,1396.35c6.93-.3,4.98,1.3,14.59,2.13,9.61.82,13.16-2.12,13.72-3.46.5-1.19-4.06-2.55-8.93-4.11l-.07.09s-6.43,2.88-14.3,1.52c-6.41-1.11-12.81-4.28-17.23-5.08-.39,1.44-.78,2.91-.78,4.43,0,4.31,6.06,4.79,12.99,4.49Z"/>
    <path class="cls-35" d="M1004.47,1293.93c-28.71,16.4-104.28-9.72-104.2-11.23.4-8.03,7.66-56.36,16.19-102.48,5.24-28.36,19.2-38.96,16.97-40.75.53.43,8.63,6.96,23.48,6.07,13.29-.8,23.53-2.46,26.04-2.91,2.43,5.59,9.33,19.6,11.33,37.58,6.51,58.49,10.19,113.71,10.19,113.71Z"/>
    <path class="cls-38" d="M933.39,1139.44s23.51,9.81,48.86.56l1.29,3.97s-26.09,9.06-51.17-1.25l1.02-3.28Z"/>
  </g>
  <path class="cls-1" d="M3.37,1396.1h2971.07c1.86,0,3.37,1.51,3.37,3.37v1.15c0,1.86-1.51,3.37-3.37,3.37H3.37c-1.86,0-3.37-1.51-3.37-3.37v-1.15c0-1.86,1.51-3.37,3.37-3.37Z"/>
  <g>
    <path class="cls-26" d="M1969.54,1398.91h-25.46c.19-1.34.84-5.4,2.03-9.14.41-1.3.89-2.57,1.44-3.67,2.48-4.94,18.2-1.8,18.2-1.8,0,0,1.46,1.25,2.6,6.03.5,2.11.95,4.9,1.18,8.57Z"/>
    <path class="cls-30" d="M1922.8,1010.01s-20.29,3.56-24.88,15.54c-4.59,11.98-30.5,205.41-30.5,205.41,0,0,12.83,10.17,40.38,6.52,27.54-3.65,15-227.46,15-227.46Z"/>
    <path class="cls-26" d="M1892.6,1390.88c-.07,3.46-.5,6.74-1.76,8.04h-50.36c.64-1.82,2.45-4.56,7.62-5.4,5.88-.95,15.03-3.78,20.38-9.43,1.91-2.01,3.32-4.38,3.95-7.14,2.37-10.55,19.59,3.23,19.59,3.23,0,0,.7,5.55.58,10.71Z"/>
    <path class="cls-26" d="M1870.91,1385.75c5.63,1.8,16.38,7.28,23.22,4.7,4.41-1.66,29.1-73.06,30.7-104.3.12-2.27.56-5.44,1.26-9.3,1.46-8.06,4.02-19.14,6.96-31.36,7.9-32.75,18.58-73.71,18.35-86.81-.36-20.32-60.57-4.26-60.57-4.26,0,0-4.14,16.67-4.97,40.81-1.63,47.91-6.13,128.84-18.36,185.04-.52,2.38,1.06,4.74,3.39,5.48Z"/>
    <path class="cls-33" d="M1912.7,1158.76l31.83,230.68s13.98,3.37,24.85.67c0,0,9.32-122.69,8.54-152.35-.78-29.66,6.69-79.37-1.7-84.85-8.39-5.48-63.51,5.84-63.51,5.84Z"/>
    <path class="cls-18" d="M1980.24,1020.58s-33.45-21.63-57.44-10.57c-3.82,1.76-8.18,6.68-11.31,10.12-8.67,9.56-25.62,161.35-25.62,161.35,0,0,48.1,16.29,94.36-5.53v-155.38Z"/>
    <path class="cls-30" d="M1920.9,1009.47s-33.86,13.88-38.45,24.54c-4.59,10.66-19.49,76.14-19.49,83.82s25.95,1.72,30.13-10.67c3.47-10.28,15.17-41.88,21.34-61.86l6.47-35.84Z"/>
    <g>
      <path class="cls-28" d="M1927.93,1020.04c7.39,1.45,18.25-.09,26.2-5.34-3.59-8.57-5.06-15.34-5.58-19.72-.03-.23-.05-.46-.08-.68-.24-2.27-.2-3.81-.09-4.52h-19.11s-5.22,2.39-5.22,4.04c0,.88,0,1.73-.02,2.53-.04,2.2-.13,4.12-.24,5.76-.36,5.36-.98,7.89-.98,7.89,0,0-2.34,8.56,5.13,10.03Z"/>
      <path class="cls-27" d="M1923.78,1002.13c14.48,2.8,22.88-5.11,24.77-7.14.27-.29.41-.46.41-.46-.15-.08-.31-.15-.48-.21-5.39-2.18-17.62-.45-24.45,2.06-.04,2.2-.13,4.12-.24,5.76Z"/>
      <path class="cls-28" d="M1953.27,986.65c-2.59,13.92-20.55,13.47-28.32,12.59-2.19-.24-3.56-.52-3.56-.52-2.46-.66-3.84-4.54-4.48-9.62-1.27-10.06.33-24.83,2.03-28.61,2.56-5.68,7.38-11.83,25.47-7.39,18.1,4.44,12.17,15.71,8.85,33.55Z"/>
      <path class="cls-26" d="M1918.28,952.72c2.47-3.42,7.72-7.61,12.48-10.18,10.23-5.54,23.33.17,23.38.2,14.78,6.5,18.64,17.81,10.8,35.42-8.29,18.63-16.17,16.53-16.17,16.53,0,0,1.67-1.04,1.52-6.85,0-.33-.02-.61-.04-.84-.08-1.19.34-2.38,1.23-3.18,1.84-1.64,2.73-6.59,1.19-7.97-1.85-1.66-4.46.36-5.29,1.91-.73,1.1-2.03,1.48-3.24.71-4.6-2.91-1.61-8.72-6.01-12.28-4.4-3.56-13.31-.57-19.91-3.41-8.63-3.22-1.81-7.48.05-10.06Z"/>
    </g>
    <path class="cls-9" d="M1916.22,1245.17c2.91.75,5.79,1.36,8.66,1.84,2.53.43,5.06.75,7.58.97,14.31,1.25,28.69-.77,45.5-5.59,3.78-1.08,7.69-2.32,11.75-3.68.43-.14-1.1-44.59-2.88-90.43-.18-4.73-.37-9.48-.55-14.2-.08-2-.16-3.99-.24-5.97-1.61-40.54-3.2-77.16-3.54-79.13-.77-4.46-1.49-8.26-2.27-11.56-2.29-9.61-5.13-14.87-11.33-19.4-.6-.46-5.56-2.96-9.93-5.13-3.62-1.8-6.84-3.37-6.84-3.37h0c-1.44.71-3.17,4.01-4.98,8.65-3.33,8.55-6.92,21.63-9.42,31.41,0,.03-.01.04-.01.05h0c-1.61,6.31-2.76,11.23-3.09,12.64-.56,2.38-1.3,6.99-2.16,13.24-1.18,8.5-2.58,20.05-4.07,33.15-.15,1.35-.31,2.71-.46,4.09-.18,1.57-.36,3.16-.53,4.77-.06.52-.11,1.03-.17,1.55-.57,5.19-1.15,10.54-1.72,15.98-.48,4.5-7.3,7.75-7.77,12.33-.27,2.69-.84,27.48-1.57,35.39-.52,5.65-.15,59.76.05,62.42Z"/>
    <path class="cls-30" d="M1965.58,1065.33c.02.09,1.16,41-29.61,45.96-30.77,4.97-10.33,6.28-10.33,6.28,0,0,57.89-2.46,58.85-3.99.96-1.53-18.91-48.26-18.91-48.26Z"/>
    <path class="cls-30" d="M1939.59,1128.85s.58.41,1.69,1.12c.02,0,.04.02.06.03,4.69,3,18.62,11.16,38.91,16.64,2.13.58,4.33,1.12,6.6,1.63-.18-4.73-.37-9.48-.55-14.2,2.68-.21,5.24-.55,7.62-1.05-.08-.62-.16-1.25-.24-1.87-2.58-1.06-5.14-2.08-7.62-3.05-2.01-.79-3.96-1.54-5.81-2.23-8.33-3.17-14.51-5.31-14.51-5.31l-24.66,7.81-1.48.47Z"/>
    <path class="cls-9" d="M1933.06,1128.17s3.17.79,8.21,1.81c.02,0,.03,0,.05.01,9.3,1.87,24.94,4.49,38.91,4.35,2.06-.02,4.09-.1,6.05-.26,2.68-.21,5.24-.55,7.62-1.05,5.11-1.08,9.38-2.9,12.18-5.75,20.78-21.17-11.34-97.14-18.09-104.53-7.88-8.63-22.28-11.66-30.22-12.7-.33-.04-.65-.08-.96-.12-2.79-.33-4.59-.4-4.69-.41h0s.62,2,1.67,5.4c.41,1.31.88,2.84,1.39,4.54,4.88,15.98,14.3,47.4,18.45,65.11,1.52,6.48,2.33,11.13,1.96,12.52-1.62,6.05-18.41,9.16-29.05,10.54-4.44.57-7.8.84-8.56.9-.05,0-.1,0-.16.01l-.62,2.52-1.47,6.05-1.45,5.94-1.24,5.11Z"/>
    <polygon class="cls-35" points="1875.1 1164.59 1946.47 1161.58 1931.99 1072.63 1860.62 1075.64 1875.1 1164.59"/>
    <path class="cls-28" d="M1937.84,1108.55s-13.89-.97-14.59,2.27c-1.62,7.55,11.94,13.75,16.34,13.32,4.4-.42,1.45-16.1-1.75-15.59Z"/>
    <path class="cls-28" d="M1864.52,1093.7s13.29-4.16,14.72-1.17c3.33,6.97-8.44,16.14-12.81,16.74-4.38.6-5.13-15.33-1.91-15.58Z"/>
    <path class="cls-30" d="M1950.69,1005.06s6.59,1.14,9.52,5.35c0,0-22.6,39.58-22.5,39.22.1-.36,7.38-39.71,12.97-44.57Z"/>
    <path class="cls-30" d="M1923.48,1005.59c-1.92.73-5.62,4.51-6.45,6.6l-2.6,33.12s5.55-24.3,8.37-35.29c.72-2.79.59-3.64.68-4.42Z"/>
    <path class="cls-32" d="M1908.33,1073.63s-.56-2.47-3.81-2.18c-3.25.29-21.5,1.18-21.5,1.18,0,0-3.52-.06-3.19,2.2l28.51-1.2Z"/>
  </g>
</svg>